<svg xmlns="http://www.w3.org/2000/svg" version="1.1" xmlns:xlink="http://www.w3.org/1999/xlink" xmlns:svgjs="http://svgjs.dev/svgjs" width="2000" height="3000" preserveAspectRatio="none" viewBox="0 0 2000 3000"><g mask="url(&quot;#SvgjsMask1015&quot;)" fill="none"><path d="M-88.59 2683.38C200.13 2561.8 216.66 1631.14 639.34 1663.38 1062.01 1695.62 1004.06 3200.12 1367.26 3552.66" stroke="rgba(90, 186, 138, 1)" stroke-width="2"></path><path d="M-26.57 889.81C310.05 1055.03 155.65 1904.92 787.16 2149.81 1418.67 2394.7 1308.16 2972.17 1600.89 3055.84" stroke="rgba(90, 186, 138, 1)" stroke-width="2"></path><path d="M-213.98 1269.71C50.45 1212.35 68.83 250.7 566.37 519.71 1063.9 788.72 724.3 2568.2 956.54 3205.78" stroke="rgba(90, 186, 138, 1)" stroke-width="2"></path><path d="M-250 1879.65C71.2 1780.34 173.08 752.59 626.43 859.65 1079.77 966.71 811.03 2661.51 1064.64 3200.05" stroke="rgba(90, 186, 138, 1)" stroke-width="2"></path><path d="M-250.98 2147C-62.61 2159.94 76.8 2522 404.59 2522 732.37 2522 686.56 2123.55 1060.15 2147 1433.75 2170.45 1435.63 3090.93 1715.72 3245.14" stroke="rgba(90, 186, 138, 1)" stroke-width="2"></path></g><defs><mask id="SvgjsMask1015"><rect width="2000" height="3000" fill="#ffffff"></rect></mask></defs></svg>