<svg width="315" height="256" viewBox="0 0 315 256" fill="none" xmlns="http://www.w3.org/2000/svg">
<path fill-rule="evenodd" clip-rule="evenodd" d="M75.3261 230.052C68.7396 228.128 70.0921 222.875 71.5917 220.489C149.659 158.938 206.126 48.1422 221.012 18.9341L221.012 18.9338C222.904 15.221 224.124 12.8266 224.632 12.0193C228.231 6.29275 250.446 -7.13235 243.814 8.9026C232.61 38.9118 183.896 119.151 174.638 129.102C171.108 132.896 166.003 139.541 160.262 147.014C150.653 159.521 139.264 174.346 130.5 182C127.268 184.823 121.989 190.034 115.928 196.017L115.928 196.018C100.518 211.23 80.0534 231.433 75.3261 230.052ZM62.8869 215.662C56.2928 218.96 53.2705 214.289 52.5836 211.541C64.6859 118.18 25.5055 55.511 11.3594 32.8842C8.64497 28.5424 6.85229 25.675 6.52054 24.348C5.99559 22.2482 5.04018 19.8602 4.09259 17.4917C2.06446 12.4225 0.0721557 7.44278 2.41293 5.57016C9.28177 5.57016 51.9286 75.7088 55.2257 88.897C58.5227 102.085 67.8738 140.954 66.5 159.5C65.7352 163.324 65.9487 171.592 66.1826 180.647C66.5789 195.989 67.0335 213.589 62.8869 215.662ZM80.5915 240.18C77.844 240.866 73.1731 243.889 76.4702 250.483C78.5545 254.651 88.9397 254.457 98.9007 254.271C104.697 254.163 110.349 254.057 114.139 254.815C132.684 256.189 164.094 253.78 177.282 250.483C190.47 247.186 244.765 229.731 301.098 204.498C321.637 188.068 312.974 184.072 306.38 185.72C305.159 186.026 301.786 187.752 296.565 190.426C266.54 205.797 175.382 252.467 80.5915 240.18Z" fill="#FE853A"/>
<path d="M71.5917 220.489L71.2821 220.097L71.2143 220.15L71.1684 220.223L71.5917 220.489ZM75.3261 230.052L75.4663 229.572L75.4663 229.572L75.3261 230.052ZM221.012 18.9341L221.457 19.1611L221.463 19.1493L221.469 19.1371L221.012 18.9341ZM221.012 18.9338L220.566 18.7067L220.56 18.7186L220.555 18.7307L221.012 18.9338ZM224.632 12.0193L224.208 11.7532L224.208 11.7532L224.632 12.0193ZM243.814 8.9026L243.352 8.7115L243.348 8.71955L243.345 8.72772L243.814 8.9026ZM174.638 129.102L175.004 129.443L175.004 129.443L174.638 129.102ZM160.262 147.014L159.865 146.709L159.865 146.709L160.262 147.014ZM130.5 182L130.829 182.377L130.829 182.377L130.5 182ZM115.928 196.017L116.271 196.381L116.28 196.373L115.928 196.017ZM115.928 196.018L115.585 195.653L115.577 195.662L115.928 196.018ZM52.5836 211.541L52.0877 211.477L52.0756 211.571L52.0985 211.662L52.5836 211.541ZM62.8869 215.662L62.6633 215.215L62.6633 215.215L62.8869 215.662ZM11.3594 32.8842L11.7833 32.6191L11.7833 32.6191L11.3594 32.8842ZM4.09259 17.4917L3.62837 17.6775L3.62837 17.6775L4.09259 17.4917ZM2.41293 5.57016V5.07016H2.23754L2.10058 5.17973L2.41293 5.57016ZM66.5 159.5L66.9903 159.598L66.9964 159.568L66.9986 159.537L66.5 159.5ZM66.1826 180.647L65.6828 180.66L66.1826 180.647ZM76.4702 250.483L76.023 250.706L76.023 250.706L76.4702 250.483ZM80.5915 240.18L80.6558 239.684L80.562 239.672L80.4702 239.694L80.5915 240.18ZM98.9007 254.271L98.9101 254.771L98.9101 254.771L98.9007 254.271ZM114.139 254.815L114.04 255.305L114.071 255.311L114.102 255.314L114.139 254.815ZM177.282 250.483L177.403 250.968L177.403 250.968L177.282 250.483ZM301.098 204.498L301.303 204.955L301.361 204.929L301.411 204.889L301.098 204.498ZM306.38 185.72L306.258 185.235L306.258 185.235L306.38 185.72ZM296.565 190.426L296.337 189.981L296.337 189.981L296.565 190.426ZM71.1684 220.223C70.3813 221.476 69.6091 223.509 69.933 225.523C70.0968 226.543 70.5412 227.55 71.3941 228.43C72.2438 229.306 73.477 230.033 75.186 230.532L75.4663 229.572C73.882 229.11 72.8143 228.458 72.112 227.734C71.413 227.013 71.0542 226.198 70.9203 225.365C70.6486 223.675 71.3026 221.889 72.015 220.755L71.1684 220.223ZM220.566 18.707C205.673 47.9293 149.25 158.624 71.2821 220.097L71.9013 220.882C150.068 159.253 206.579 48.3551 221.457 19.1611L220.566 18.707ZM220.555 18.7307L220.555 18.731L221.469 19.1371L221.469 19.1368L220.555 18.7307ZM224.208 11.7532C223.685 12.5854 222.45 15.0114 220.566 18.7067L221.457 19.1608C223.358 15.4306 224.563 13.0677 225.055 12.2853L224.208 11.7532ZM244.276 9.0937C245.115 7.06434 245.519 5.45332 245.541 4.20661C245.563 2.94931 245.193 2.0004 244.421 1.41988C243.672 0.857023 242.653 0.724947 241.558 0.834694C240.453 0.94546 239.191 1.3099 237.874 1.83608C235.238 2.88952 232.294 4.6271 229.785 6.45759C227.29 8.278 225.161 10.2369 224.208 11.7532L225.055 12.2853C225.902 10.9383 227.899 9.0717 230.375 7.26541C232.836 5.4692 235.707 3.77897 238.245 2.76469C239.516 2.257 240.681 1.92761 241.658 1.82971C242.645 1.73079 243.363 1.87523 243.82 2.2192C244.254 2.54552 244.56 3.13377 244.541 4.1891C244.523 5.25503 244.17 6.73213 243.352 8.7115L244.276 9.0937ZM175.004 129.443C177.355 126.915 182.161 119.992 188.197 110.613C194.246 101.216 201.556 89.3095 208.927 76.7775C223.661 51.7274 238.663 24.1292 244.282 9.07748L243.345 8.72772C237.761 23.6852 222.804 51.2111 208.065 76.2705C200.7 88.7932 193.396 100.688 187.356 110.072C181.305 119.474 176.55 126.313 174.272 128.761L175.004 129.443ZM160.658 147.318C166.407 139.836 171.494 133.214 175.004 129.443L174.272 128.761C170.722 132.577 165.599 139.246 159.865 146.709L160.658 147.318ZM130.829 182.377C139.64 174.682 151.064 159.807 160.658 147.318L159.865 146.709C150.243 159.234 138.888 174.01 130.171 181.623L130.829 182.377ZM116.28 196.373C122.346 190.384 127.611 185.187 130.829 182.377L130.171 181.623C126.924 184.459 121.632 189.684 115.577 195.661L116.28 196.373ZM116.271 196.382L116.271 196.381L115.586 195.653L115.585 195.654L116.271 196.382ZM75.186 230.532C75.9564 230.757 76.9358 230.526 77.9941 230.069C79.0788 229.601 80.3565 228.845 81.7803 227.868C84.6305 225.913 88.1318 223.025 91.953 219.631C99.5981 212.841 108.577 203.977 116.279 196.373L115.577 195.662C107.869 203.271 98.9103 212.115 91.2889 218.884C87.4768 222.269 84.0125 225.124 81.2146 227.044C79.8143 228.005 78.5972 228.72 77.5977 229.151C76.5719 229.594 75.8777 229.692 75.4663 229.572L75.186 230.532ZM52.0985 211.662C52.4616 213.115 53.4426 215.097 55.2447 216.286C57.0876 217.502 59.6864 217.822 63.1105 216.11L62.6633 215.215C59.4932 216.8 57.2838 216.433 55.7954 215.451C54.2661 214.442 53.3925 212.715 53.0687 211.42L52.0985 211.662ZM10.9354 33.1492C25.0662 55.7514 64.1669 118.294 52.0877 211.477L53.0794 211.605C65.2049 118.066 25.9449 55.2706 11.7833 32.6191L10.9354 33.1492ZM6.03547 24.4693C6.22143 25.2131 6.79162 26.3224 7.61423 27.7369C8.44813 29.1709 9.57989 30.981 10.9354 33.1492L11.7833 32.6191C10.4245 30.4456 9.30267 28.6511 8.47869 27.2342C7.64343 25.7979 7.15141 24.8099 7.00561 24.2268L6.03547 24.4693ZM3.62837 17.6775C4.57965 20.0552 5.52044 22.4092 6.03547 24.4693L7.00561 24.2268C6.47074 22.0873 5.50071 19.6652 4.55682 17.306L3.62837 17.6775ZM2.10058 5.17973C0.677854 6.31791 0.666059 8.32219 1.12582 10.4384C1.5956 12.6006 2.6195 15.1558 3.62837 17.6775L4.55682 17.306C3.53755 14.7584 2.55123 12.2891 2.10302 10.2261C1.64479 8.11691 1.80723 6.69503 2.72527 5.9606L2.10058 5.17973ZM55.7107 88.7757C55.2858 87.0758 54.2399 84.499 52.744 81.3174C51.2434 78.1257 49.2755 74.2951 46.9883 70.0751C42.4136 61.6348 36.5538 51.6224 30.5833 42.0239C24.6135 32.4266 18.5278 23.2347 13.5011 16.4381C10.9889 13.0414 8.73308 10.2318 6.88314 8.26694C5.95918 7.28559 5.12484 6.50241 4.40142 5.96081C3.70347 5.43829 3.01892 5.07016 2.41293 5.07016V6.07016C2.66554 6.07016 3.11911 6.25 3.80211 6.76133C4.45964 7.2536 5.24909 7.99018 6.15506 8.95244C7.965 10.8748 10.1936 13.6478 12.6971 17.0327C17.7015 23.7992 23.7715 32.9662 29.7342 42.5521C35.6961 52.1368 41.5455 62.1318 46.1091 70.5517C48.391 74.7618 50.3494 78.5744 51.839 81.7428C53.3333 84.9211 54.3413 87.4212 54.7406 89.0183L55.7107 88.7757ZM66.9986 159.537C67.6909 150.191 65.6833 135.777 63.1058 122.097C60.5249 108.398 57.3601 95.3731 55.7107 88.7757L54.7406 89.0183C56.3883 95.6091 59.5476 108.612 62.123 122.282C64.7018 135.969 66.6828 150.263 66.0014 159.463L66.9986 159.537ZM66.6825 180.634C66.5655 176.105 66.4538 171.782 66.4668 168.114C66.4798 164.434 66.6186 161.457 66.9903 159.598L66.0097 159.402C65.6166 161.368 65.4798 164.436 65.4668 168.11C65.4538 171.796 65.5659 176.135 65.6828 180.66L66.6825 180.634ZM63.1105 216.11C63.7561 215.787 64.2657 215.187 64.6751 214.43C65.0866 213.669 65.4199 212.706 65.6926 211.593C66.238 209.366 66.5595 206.456 66.7376 203.157C67.0941 196.556 66.8804 188.299 66.6825 180.634L65.6828 180.66C65.8811 188.337 66.0929 196.551 65.7391 203.103C65.562 206.382 65.2445 209.219 64.7213 211.355C64.4596 212.423 64.1513 213.296 63.7954 213.954C63.4376 214.616 63.0542 215.02 62.6633 215.215L63.1105 216.11ZM76.9174 250.259C75.3324 247.089 75.6994 244.88 76.6815 243.391C77.6905 241.862 79.4175 240.988 80.7128 240.665L80.4702 239.694C79.018 240.058 77.0358 241.039 75.8468 242.841C74.6308 244.684 74.3109 247.282 76.023 250.706L76.9174 250.259ZM98.8914 253.771C93.9008 253.864 88.8496 253.958 84.7861 253.513C82.7547 253.29 81.0004 252.936 79.6381 252.395C78.2722 251.852 77.361 251.146 76.9174 250.259L76.023 250.706C76.6216 251.904 77.7901 252.737 79.2689 253.324C80.7513 253.913 82.6067 254.28 84.6773 254.507C88.8177 254.96 93.9397 254.864 98.9101 254.771L98.8914 253.771ZM114.237 254.325C110.381 253.553 104.663 253.663 98.8914 253.771L98.9101 254.771C104.73 254.662 110.317 254.56 114.04 255.305L114.237 254.325ZM177.161 249.998C164.033 253.28 132.678 255.687 114.175 254.316L114.102 255.314C132.69 256.691 164.154 254.28 177.403 250.968L177.161 249.998ZM300.894 204.042C244.581 229.265 190.315 246.709 177.161 249.998L177.403 250.968C190.625 247.662 244.948 230.197 301.303 204.955L300.894 204.042ZM306.501 186.205C308.09 185.808 309.776 185.76 311.089 186.13C312.393 186.497 313.247 187.242 313.419 188.403C313.601 189.625 313.064 191.474 311.114 194.103C309.177 196.714 305.904 200.013 300.786 204.108L301.411 204.889C306.562 200.768 309.908 197.407 311.917 194.699C313.913 192.008 314.65 189.881 314.408 188.256C314.158 186.571 312.893 185.599 311.36 185.167C309.836 184.738 307.967 184.808 306.258 185.235L306.501 186.205ZM296.792 190.871C299.405 189.533 301.548 188.436 303.191 187.634C304.854 186.823 305.952 186.343 306.501 186.205L306.258 185.235C305.587 185.403 304.387 185.939 302.753 186.736C301.099 187.542 298.946 188.645 296.337 189.981L296.792 190.871ZM80.5272 240.675C175.49 252.985 266.777 206.237 296.792 190.871L296.337 189.981C266.303 205.357 175.274 251.949 80.6558 239.684L80.5272 240.675Z" fill="#FE853A"/>
</svg>
