<svg width="45" height="42" viewBox="0 0 45 42" fill="none" xmlns="http://www.w3.org/2000/svg">
<path fill-rule="evenodd" clip-rule="evenodd" d="M10.4219 33.4406C8.72487 32.8749 9.00771 31.555 9.36127 30.9657C28.0977 16.5295 32.452 5.89417 33.9677 2.1922C34.1966 1.63297 34.3608 1.23196 34.5 0.999964C35.3485 -0.41425 38.5 1.49999 37 5.5C34.5 13 33.5201 15.108 31.2816 17.5307C29 20 22.3249 26.9588 18.9072 29.9051C16.7859 31.3193 12.119 34.0063 10.4219 33.4406ZM5.5642 31C3.9642 31.8 3.23087 30.6667 3.0642 30C5.88359 8.25039 3.18737 6.61657 1.77079 5.75817C1.42883 5.55095 1.16143 5.38892 1.0642 5C0.664204 3.4 2.23087 1.66666 3.0642 0.999997C4.73087 0.999997 8.2642 1.8 9.0642 5C9.8642 8.2 9.39754 18 9.0642 22.5C8.5642 25 7.1642 30.2 5.5642 31ZM9.8601 36.9488C9.19343 37.1155 8.0601 37.8488 8.8601 39.4488C9.36584 40.4603 11.8857 40.4132 14.3027 40.368C15.709 40.3417 17.0804 40.3161 18 40.5C22.5 40.8333 30.8 41.3 34 40.5C37.2 39.7 44 35.6667 44 34C43.3333 33.1667 37.1 32.6 35.5 33C35.1064 33.0984 34.9204 33.4465 34.6698 33.9156C33.6468 35.8302 31.547 39.7601 9.8601 36.9488Z" fill="#FE853A"/>
<path d="M9.36127 30.9657L9.0561 30.5697L8.98118 30.6274L8.93252 30.7085L9.36127 30.9657ZM10.4219 33.4406L10.2638 33.9149L10.2638 33.9149L10.4219 33.4406ZM33.9677 2.1922L34.4304 2.38165L34.4304 2.38164L33.9677 2.1922ZM34.5 0.999964L34.9287 1.25721L34.9287 1.25721L34.5 0.999964ZM37 5.5L36.5318 5.32444L36.5286 5.3331L36.5257 5.34188L37 5.5ZM31.2816 17.5307L30.9143 17.1914L30.9143 17.1914L31.2816 17.5307ZM18.9072 29.9051L19.1846 30.3211L19.2103 30.3039L19.2337 30.2838L18.9072 29.9051ZM3.0642 30L2.56835 29.9357L2.55619 30.0295L2.57913 30.1213L3.0642 30ZM1.77079 5.75817L1.51167 6.18578L1.51167 6.18578L1.77079 5.75817ZM1.0642 5L0.579133 5.12126L0.579133 5.12127L1.0642 5ZM3.0642 0.999997V0.499997H2.88881L2.75186 0.609563L3.0642 0.999997ZM9.0642 5L9.54928 4.87873L9.54928 4.87873L9.0642 5ZM9.0642 22.5L9.55449 22.5981L9.56056 22.5678L9.56284 22.5369L9.0642 22.5ZM8.8601 39.4488L9.30731 39.2252L9.30731 39.2252L8.8601 39.4488ZM9.8601 36.9488L9.92438 36.453L9.83058 36.4408L9.73883 36.4638L9.8601 36.9488ZM14.3027 40.368L14.2933 39.8681L14.2933 39.8681L14.3027 40.368ZM18 40.5L17.9019 40.9903L17.9322 40.9963L17.9631 40.9986L18 40.5ZM44 34H44.5V33.8246L44.3904 33.6877L44 34ZM35.5 33L35.3787 32.5149L35.3787 32.5149L35.5 33ZM34.6698 33.9156L34.2288 33.6799L34.2288 33.6799L34.6698 33.9156ZM8.93252 30.7085C8.71411 31.0725 8.50276 31.678 8.6328 32.3124C8.77267 32.9948 9.28058 33.5872 10.2638 33.9149L10.58 32.9663C9.86622 32.7283 9.66702 32.3779 9.61243 32.1116C9.54801 31.7973 9.65486 31.4482 9.79001 31.223L8.93252 30.7085ZM33.5049 2.00275C32.0179 5.63485 27.7133 16.1944 9.0561 30.5697L9.66643 31.3618C28.482 16.8646 32.8861 6.15349 34.4304 2.38165L33.5049 2.00275ZM34.0713 0.742715C33.9072 1.0161 33.7257 1.46365 33.5049 2.00275L34.4304 2.38164C34.6676 1.8023 34.8144 1.44782 34.9287 1.25721L34.0713 0.742715ZM37.4682 5.67556C38.2698 3.53797 37.8575 1.85567 37.0059 0.889104C36.5888 0.415766 36.0547 0.106475 35.5143 0.0469742C34.9542 -0.0146895 34.3964 0.200802 34.0712 0.742716L34.9287 1.25721C35.0279 1.09202 35.1822 1.01646 35.4048 1.04097C35.6471 1.06764 35.9662 1.22174 36.2555 1.55019C36.8168 2.18719 37.2302 3.46201 36.5318 5.32444L37.4682 5.67556ZM31.6488 17.87C33.9687 15.3592 34.9758 13.1538 37.4743 5.65811L36.5257 5.34188C34.0242 12.8461 33.0714 14.8568 30.9143 17.1914L31.6488 17.87ZM19.2337 30.2838C22.6754 27.3167 29.368 20.3385 31.6488 17.87L30.9143 17.1914C28.632 19.6615 21.9743 26.6008 18.5807 29.5264L19.2337 30.2838ZM10.2638 33.9149C10.8379 34.1063 11.5728 34.0066 12.2976 33.8079C13.0462 33.6027 13.8843 33.2623 14.7193 32.8673C16.3912 32.0763 18.1098 31.0376 19.1846 30.3211L18.6299 29.489C17.5833 30.1868 15.9078 31.1987 14.2916 31.9633C13.4826 32.3461 12.7032 32.6598 12.0332 32.8435C11.3393 33.0337 10.8544 33.0577 10.58 32.9663L10.2638 33.9149ZM2.57913 30.1213C2.68209 30.5331 2.9608 31.1107 3.50134 31.4673C4.08277 31.851 4.86081 31.9107 5.78781 31.4472L5.3406 30.5528C4.6676 30.8893 4.27897 30.7824 4.05207 30.6327C3.78428 30.456 3.61298 30.1336 3.54928 29.8787L2.57913 30.1213ZM1.51167 6.18578C1.85116 6.3915 2.20597 6.60788 2.55058 7.12633C2.90439 7.65864 3.26891 8.54559 3.51183 10.1211C3.99915 13.2817 3.97705 19.0686 2.56835 29.9357L3.56006 30.0643C4.97074 19.1818 5.01023 13.2769 4.50015 9.96869C4.24436 8.30972 3.84543 7.26791 3.38339 6.57278C2.91215 5.86379 2.39871 5.55403 2.02991 5.33055L1.51167 6.18578ZM0.579133 5.12127C0.732618 5.7352 1.19004 5.99088 1.51167 6.18578L2.02991 5.33055C1.66762 5.11101 1.59025 5.04263 1.54928 4.87873L0.579133 5.12127ZM2.75186 0.609563C2.29955 0.971412 1.65829 1.61247 1.17715 2.38589C0.70204 3.14962 0.330961 4.12858 0.579133 5.12126L1.54928 4.87873C1.39745 4.27142 1.6097 3.58371 2.02626 2.91411C2.43678 2.2542 2.99553 1.69525 3.37655 1.39043L2.75186 0.609563ZM9.54928 4.87873C9.10476 3.10066 7.89728 1.99951 6.61406 1.35341C5.34076 0.712307 3.96114 0.499997 3.0642 0.499997V1.5C3.83393 1.5 5.05432 1.68769 6.16435 2.24658C7.26446 2.80049 8.22365 3.69934 8.57913 5.12127L9.54928 4.87873ZM9.56284 22.5369C9.73004 20.2798 9.9306 16.695 9.98913 13.271C10.0184 11.5592 10.0123 9.88252 9.94809 8.4295C9.88435 6.98596 9.76227 5.73072 9.54928 4.87873L8.57913 5.12126C8.76614 5.86927 8.88572 7.03903 8.94907 8.47362C9.01199 9.89873 9.01835 11.5533 8.98928 13.254C8.93114 16.6549 8.7317 20.2202 8.56557 22.4631L9.56284 22.5369ZM5.78781 31.4472C6.32911 31.1766 6.77823 30.5864 7.15021 29.9334C7.53446 29.2589 7.8864 28.4257 8.1975 27.5559C8.82038 25.8144 9.30118 23.8646 9.55449 22.5981L8.57391 22.4019C8.32723 23.6354 7.85803 25.5356 7.25591 27.2191C6.95451 28.0618 6.6252 28.8348 6.28132 29.4384C5.92518 30.0636 5.5993 30.4234 5.3406 30.5528L5.78781 31.4472ZM9.30731 39.2252C8.97081 38.5522 9.07773 38.1636 9.22744 37.9367C9.40413 37.6689 9.72653 37.4976 9.98137 37.4339L9.73883 36.4638C9.327 36.5667 8.7494 36.8454 8.39276 37.386C8.00913 37.9674 7.94939 38.7454 8.41289 39.6724L9.30731 39.2252ZM14.2933 39.8681C13.0747 39.8909 11.8759 39.9124 10.9191 39.8076C10.441 39.7553 10.0537 39.6741 9.76859 39.5609C9.4799 39.4462 9.35623 39.3231 9.30731 39.2252L8.41289 39.6724C8.61683 40.0803 8.9978 40.3307 9.39937 40.4902C9.80455 40.6512 10.2931 40.7451 10.8102 40.8017C11.8441 40.9149 13.1137 40.8903 14.312 40.8679L14.2933 39.8681ZM18.0981 40.0097C17.1124 39.8126 15.6754 39.8423 14.2933 39.8681L14.312 40.8679C15.7425 40.8412 17.0485 40.8196 17.9019 40.9903L18.0981 40.0097ZM33.8787 40.0149C32.3532 40.3963 29.5439 40.4836 26.4971 40.4251C23.4727 40.367 20.283 40.1677 18.0369 40.0014L17.9631 40.9986C20.217 41.1656 23.4273 41.3663 26.4779 41.4249C29.5061 41.4831 32.4468 41.4037 34.1213 40.9851L33.8787 40.0149ZM43.5 34C43.5 34.0523 43.4658 34.1927 43.2935 34.436C43.1301 34.6667 42.8806 34.9368 42.5512 35.2363C41.8938 35.8339 40.9709 36.5015 39.9344 37.1514C37.8525 38.4567 35.4043 39.6335 33.8787 40.0149L34.1213 40.9851C35.7957 40.5665 38.3475 39.3266 40.4656 37.9986C41.5291 37.3318 42.5062 36.6287 43.2238 35.9762C43.5819 35.6507 43.8886 35.326 44.1096 35.014C44.3217 34.7146 44.5 34.3644 44.5 34H43.5ZM35.6213 33.4851C35.9528 33.4022 36.585 33.3604 37.4033 33.3703C38.2055 33.38 39.1397 33.4382 40.0471 33.5347C40.9562 33.6314 41.8259 33.7651 42.502 33.9229C42.8411 34.002 43.1189 34.0843 43.3241 34.1659C43.5526 34.2569 43.6139 34.3178 43.6096 34.3124L44.3904 33.6877C44.2194 33.4739 43.9401 33.3348 43.6939 33.2368C43.4243 33.1295 43.0933 33.034 42.7292 32.949C41.9991 32.7787 41.0855 32.6395 40.1529 32.5403C39.2186 32.441 38.2529 32.3805 37.4154 32.3703C36.5941 32.3604 35.8472 32.3978 35.3787 32.5149L35.6213 33.4851ZM35.1108 34.1512C35.2428 33.9041 35.3293 33.7461 35.4209 33.6321C35.4995 33.5344 35.5574 33.501 35.6213 33.4851L35.3787 32.5149C35.049 32.5973 34.8171 32.7872 34.6417 33.0054C34.4792 33.2074 34.3474 33.4579 34.2288 33.6799L35.1108 34.1512ZM9.79582 37.4447C20.6549 38.8523 26.6798 38.5836 30.1391 37.6885C31.8781 37.2385 32.9895 36.6251 33.7404 35.9691C34.493 35.3116 34.8512 34.637 35.1108 34.1512L34.2288 33.6799C33.9768 34.1515 33.689 34.6861 33.0824 35.2161C32.4741 35.7475 31.5133 36.2999 29.8886 36.7204C26.6206 37.566 20.7522 37.8566 9.92438 36.453L9.79582 37.4447Z" fill="#FE853A"/>
</svg>
