<svg xmlns="http://www.w3.org/2000/svg" version="1.1" xmlns:xlink="http://www.w3.org/1999/xlink" xmlns:svgjs="http://svgjs.dev/svgjs" width="1920" height="1080" preserveAspectRatio="none" viewBox="0 0 1920 1080"><g mask="url(&quot;#SvgjsMask1079&quot;)" fill="none"><path d="M460.60487448995514 533.9170900568597L760.281000133994 453.61911419965185 679.9830242767862 153.94298855561294 380.3068986327473 234.2409644128208z" fill="rgba(254, 133, 58, 0.37)" class="triangle-float2"></path><path d="M917.065,129.307C943.816,129.237,965.694,111.78,980.471,89.481C997.446,63.865,1012.31,33.255,999.102,5.508C984.41,-25.355,951.168,-46.027,917.065,-43.718C885.783,-41.6,865.799,-12.823,852.251,15.453C840.771,39.413,839.938,66.724,853.082,89.813C866.372,113.158,890.202,129.377,917.065,129.307" fill="rgba(254, 133, 58, 0.37)" class="triangle-float3"></path><path d="M998.0455541065952 628.7287666480795L1115.411484241947 352.23196247160575 838.9146800654732 234.86603233625402 721.5487499301214 511.36283651272777z" fill="rgba(254, 133, 58, 0.37)" class="triangle-float1"></path><path d="M103.14084016948516 882.5866767148159L210.91805246959356 994.1932471874198 324.43930202844535 776.7241435009553z" fill="rgba(254, 133, 58, 0.37)" class="triangle-float1"></path><path d="M964.5287270526255 242.65996568678003L1042.00833089254-27.543523847609322 771.8048413581506-105.02312768752375 694.3252375182362 165.1803618468656z" fill="rgba(254, 133, 58, 0.37)" class="triangle-float2"></path><path d="M526.18 1074.73 a323.25 323.25 0 1 0 646.5 0 a323.25 323.25 0 1 0 -646.5 0z" fill="rgba(254, 133, 58, 0.37)" class="triangle-float3"></path><path d="M536.016,527.583C592.443,525.769,640.928,494.16,671.938,446.983C707.019,393.614,735.66,326.983,704.533,271.216C672.908,214.555,600.902,202.879,536.016,203.462C472.421,204.033,405.426,219.688,372.66,274.196C339.086,330.047,348.754,401.469,384.063,456.239C416.559,506.645,476.074,529.51,536.016,527.583" fill="rgba(254, 133, 58, 0.37)" class="triangle-float3"></path><path d="M489.01830465266835 544.6448682872401L334.7409138151745 623.2531252005418 529.7919946038741 815.3650830001318z" fill="rgba(254, 133, 58, 0.37)" class="triangle-float2"></path></g><defs><mask id="SvgjsMask1079"><rect width="1920" height="1080" fill="#ffffff"></rect></mask><style>
                @keyframes float1 {
                    0%{transform: translate(0, 0)}
                    50%{transform: translate(-10px, 0)}
                    100%{transform: translate(0, 0)}
                }

                .triangle-float1 {
                    animation: float1 5s infinite;
                }

                @keyframes float2 {
                    0%{transform: translate(0, 0)}
                    50%{transform: translate(-5px, -5px)}
                    100%{transform: translate(0, 0)}
                }

                .triangle-float2 {
                    animation: float2 4s infinite;
                }

                @keyframes float3 {
                    0%{transform: translate(0, 0)}
                    50%{transform: translate(0, -10px)}
                    100%{transform: translate(0, 0)}
                }

                .triangle-float3 {
                    animation: float3 6s infinite;
                }
            </style></defs></svg>