<svg width="220" height="220" viewBox="0 0 220 220" fill="none" xmlns="http://www.w3.org/2000/svg">
<path fill-rule="evenodd" clip-rule="evenodd" d="M7.18387 78.9975C4.25593 76.0696 5.29481 71.0994 9.15038 69.5893L72.6812 44.7075C74.8066 43.8751 75.3793 41.1353 73.7652 39.5213C72.529 38.285 72.5289 36.2805 73.7652 35.0442L99.1728 9.63672C101.415 7.39399 105.052 7.39399 107.294 9.63672L120.097 22.4397C121.711 24.0535 124.127 24.5586 126.253 23.7263L171.779 5.89566C173.905 5.06337 176.321 5.56842 177.935 7.18221L212.818 42.0655C214.432 43.6793 214.937 46.0955 214.104 48.2206L196.274 93.7475C195.441 95.8726 195.946 98.2888 197.56 99.9026L211.1 113.442C213.342 115.685 213.342 119.321 211.1 121.564L185.983 146.68C184.586 148.077 182.321 148.077 180.924 146.68C179.1 144.856 176.004 145.503 175.063 147.905L150.411 210.85C148.901 214.705 143.93 215.744 141.002 212.816L107.723 179.537C106.043 177.856 105.571 175.314 106.537 173.143L117.502 148.486C117.77 147.883 117.639 147.177 117.172 146.71C116.549 146.087 115.539 146.087 114.916 146.71L62.4197 199.206C60.177 201.449 56.5408 201.449 54.2981 199.206L21.53 166.438C19.2873 164.196 19.2873 160.559 21.53 158.317L73.179 106.668C74.27 105.577 74.27 103.808 73.179 102.717C72.3614 101.899 71.1248 101.67 70.0683 102.14L46.1644 112.77C43.9927 113.736 41.4505 113.264 39.7699 111.584L7.18387 78.9975ZM115.06 119.87C117.578 122.389 121.758 122.031 123.812 119.122L156.958 72.1714C160.679 66.9019 154.224 60.4476 148.955 64.1678L102.005 97.3139C99.0951 99.368 98.7376 103.548 101.256 106.066L115.06 119.87Z" fill="#5ABA8A"/>
</svg>
