<svg width="540" height="230" viewBox="0 0 540 230" fill="none" xmlns="http://www.w3.org/2000/svg">
<path d="M171.79 82.51L171.78 99.71C171.78 99.9089 171.701 100.1 171.56 100.24C171.42 100.381 171.229 100.46 171.03 100.46L104.91 100.44C104.711 100.44 104.52 100.361 104.38 100.22C104.239 100.08 104.16 99.8889 104.16 99.69L104.11 19.23C104.11 19.0311 104.189 18.8403 104.33 18.6996C104.47 18.559 104.661 18.48 104.86 18.48L170.75 18.46C170.949 18.46 171.14 18.539 171.28 18.6796C171.421 18.8203 171.5 19.011 171.5 19.21L171.52 36.33C171.52 36.5289 171.441 36.7196 171.3 36.8603C171.16 37.0009 170.969 37.08 170.77 37.08L126.32 37.06C126.121 37.06 125.93 37.139 125.79 37.2796C125.649 37.4203 125.57 37.6111 125.57 37.81L125.59 47.76C125.59 47.9589 125.669 48.1497 125.81 48.2903C125.95 48.431 126.141 48.51 126.34 48.51H168.53C168.729 48.51 168.92 48.589 169.06 48.7296C169.201 48.8703 169.28 49.0611 169.28 49.26V66.45C169.28 66.6489 169.201 66.8397 169.06 66.9803C168.92 67.121 168.729 67.2 168.53 67.2L126.3 67.18C126.101 67.18 125.91 67.259 125.77 67.3996C125.629 67.5403 125.55 67.731 125.55 67.93L125.6 81.03C125.6 81.2289 125.679 81.4196 125.82 81.5603C125.96 81.7009 126.151 81.78 126.35 81.78L171.04 81.76C171.239 81.76 171.43 81.839 171.57 81.9796C171.711 82.1203 171.79 82.3111 171.79 82.51Z" fill="black"/>
<path d="M303.97 69.0399L303.98 99.71C303.98 99.9168 303.898 100.115 303.751 100.261C303.605 100.408 303.407 100.49 303.2 100.49L283.33 100.43C283.123 100.43 282.925 100.348 282.778 100.201C282.632 100.055 282.55 99.8568 282.55 99.65L282.57 19.2799C282.57 19.0731 282.652 18.8747 282.798 18.7284C282.945 18.5821 283.143 18.4999 283.35 18.4999L303.19 18.4399C303.397 18.4399 303.595 18.5221 303.741 18.6684C303.888 18.8147 303.97 19.0131 303.97 19.2199L304 47.64C304 47.8468 304.082 48.0452 304.228 48.1915C304.375 48.3377 304.573 48.42 304.78 48.42L338.76 48.4299C338.967 48.4299 339.165 48.3478 339.311 48.2015C339.458 48.0552 339.54 47.8568 339.54 47.6499L339.49 19.2699C339.49 19.0631 339.572 18.8647 339.718 18.7184C339.865 18.5721 340.063 18.4899 340.27 18.4899L360.22 18.45C360.427 18.45 360.625 18.5321 360.771 18.6784C360.918 18.8247 361 19.0231 361 19.2299L361.01 99.6899C361.01 99.8968 360.928 100.095 360.781 100.241C360.635 100.388 360.437 100.47 360.23 100.47L340.28 100.46C340.073 100.46 339.875 100.378 339.728 100.232C339.582 100.085 339.5 99.8868 339.5 99.6799L339.52 69.0599C339.52 68.8531 339.438 68.6547 339.291 68.5084C339.145 68.3621 338.947 68.28 338.74 68.28L304.75 68.2599C304.543 68.2599 304.345 68.3421 304.198 68.4884C304.052 68.6347 303.97 68.833 303.97 69.0399Z" fill="black"/>
<path d="M454.83 18.4702H378.59C378.231 18.4702 377.94 18.7612 377.94 19.1202V37.6602C377.94 38.0192 378.231 38.3102 378.59 38.3102H454.83C455.189 38.3102 455.48 38.0192 455.48 37.6602V19.1202C455.48 18.7612 455.189 18.4702 454.83 18.4702Z" fill="black"/>
<path d="M31.4301 47.9001C31.6101 48.2268 31.8901 48.3934 32.2701 48.4001L65.4502 48.4501C66.3835 48.4501 66.8502 47.9834 66.8502 47.0501L66.9301 19.2801C66.9302 19.0723 67.0131 18.8728 67.161 18.725C67.3088 18.5771 67.5097 18.4927 67.7202 18.4901L87.5002 18.4601C88.0268 18.4534 88.2902 18.7168 88.2902 19.2501L88.3102 99.7101C88.3102 99.9143 88.229 100.11 88.0846 100.255C87.9402 100.399 87.7444 100.48 87.5402 100.48L67.5201 100.44C67.4335 100.44 67.3477 100.423 67.2676 100.39C67.1875 100.357 67.1148 100.308 67.0535 100.247C66.9922 100.186 66.9436 100.113 66.9104 100.033C66.8772 99.9526 66.8601 99.8668 66.8601 99.7801L66.8802 69.0801C66.8802 68.9764 66.8594 68.8736 66.8192 68.7778C66.779 68.682 66.7201 68.5948 66.6458 68.5215C66.5716 68.4481 66.4834 68.39 66.3863 68.3503C66.2892 68.3105 66.1852 68.2901 66.0801 68.2901L32.5201 68.2501C31.6935 68.2501 31.2802 68.6634 31.2802 69.4901L31.3401 99.6801C31.3401 99.887 31.259 100.085 31.1146 100.232C30.9702 100.378 30.7744 100.46 30.5702 100.46L10.6801 100.44C10.579 100.44 10.4789 100.42 10.3855 100.382C10.2921 100.344 10.2072 100.288 10.1357 100.217C10.0642 100.147 10.0075 100.063 9.96878 99.9709C9.93008 99.8787 9.91016 99.7799 9.91016 99.6801V19.0401C9.91016 18.8969 9.96811 18.7595 10.0713 18.6583C10.1744 18.557 10.3143 18.5001 10.4601 18.5001L30.7502 18.4701C31.0968 18.4701 31.2735 18.6468 31.2802 19.0001C31.3468 28.5468 31.3568 38.0068 31.3102 47.3801C31.3035 47.5601 31.3435 47.7334 31.4301 47.9001Z" fill="black"/>
<path d="M247.59 67.6C247.485 67.6466 247.391 67.7161 247.316 67.8037C247.241 67.8912 247.187 67.9945 247.157 68.1058C247.127 68.2171 247.123 68.3337 247.144 68.4469C247.166 68.5601 247.212 68.6672 247.28 68.7601C252.98 76.5467 259.253 85.0934 266.1 94.4001C267.373 96.1334 267.677 97.9734 267.01 99.9201C266.958 100.075 266.858 100.209 266.725 100.304C266.593 100.399 266.433 100.45 266.27 100.45L244.69 100.49C244.364 100.493 244.042 100.416 243.752 100.266C243.463 100.116 243.215 99.8978 243.03 99.6301L224.67 73.0901C224.457 72.7814 224.173 72.5284 223.842 72.3526C223.512 72.1768 223.144 72.0834 222.77 72.0801L210.48 72.0101C210.146 72.0101 209.825 72.1428 209.589 72.3791C209.353 72.6154 209.22 72.9359 209.22 73.2701L209.23 99.4901C209.23 100.143 208.907 100.47 208.26 100.47L188.68 100.46C188.167 100.46 187.91 100.203 187.91 99.6901L187.93 19.2301C187.93 18.7434 188.173 18.5001 188.66 18.5001C204.333 18.4401 220.067 18.4567 235.86 18.5501C253.16 18.6401 266.79 31.2401 263.36 49.2701C261.68 58.1601 255.83 64.05 247.59 67.6ZM238.25 39.0601C237.057 38.5934 235.823 38.3567 234.55 38.3501C226.297 38.3034 218.167 38.2767 210.16 38.2701C209.911 38.2701 209.672 38.3691 209.495 38.5454C209.319 38.7217 209.22 38.9608 209.22 39.2101V51.2801C209.22 51.4026 209.244 51.5239 209.291 51.6368C209.338 51.7498 209.407 51.8521 209.494 51.9378C209.58 52.0235 209.683 52.0908 209.796 52.1359C209.909 52.1809 210.029 52.2027 210.15 52.2001C217.463 52.0801 224.677 52.0767 231.79 52.1901C234.743 52.2367 237.043 51.9001 238.69 51.1801C243.98 48.8801 243.74 41.2001 238.25 39.0601Z" fill="black"/>
<path d="M492.95 80.99C492.95 81.1995 493.033 81.4004 493.181 81.5486C493.329 81.6967 493.53 81.78 493.74 81.78L533.48 81.76C533.574 81.76 533.668 81.7788 533.755 81.8155C533.843 81.8522 533.922 81.906 533.989 81.9738C534.056 82.0416 534.109 82.122 534.145 82.2106C534.181 82.2992 534.2 82.3941 534.2 82.49L534.21 99.49C534.21 100.13 533.893 100.45 533.26 100.45L472.55 100.44C471.897 100.44 471.567 100.11 471.56 99.45C471.52 75.39 471.523 52.0233 471.57 29.35C471.577 25.8033 471.633 22.35 471.74 18.99C471.753 18.65 471.927 18.48 472.26 18.48H492.07C492.637 18.48 492.92 18.7633 492.92 19.33L492.95 80.99Z" fill="black"/>
<path d="M388.52 56.2398C380.55 51.9898 378.2 63.5198 385.53 63.7698C386.53 63.8098 387.47 63.2498 388.35 62.8298C388.81 62.6165 389.26 62.6031 389.7 62.7898C390.06 62.9431 390.29 63.2331 390.39 63.6598C390.483 64.0531 390.403 64.3998 390.15 64.6998C389.61 65.3398 388.933 65.7831 388.12 66.0298C384.26 67.2098 381.27 66.3331 379.15 63.3998C376.8 60.1298 377.97 55.3198 381.57 53.4998C384.17 52.1865 386.873 52.2864 389.68 53.7998C390.28 54.1264 390.523 54.6264 390.41 55.2998C390.397 55.3931 390.37 55.4898 390.33 55.5898C390.262 55.7572 390.16 55.9083 390.029 56.0334C389.899 56.1585 389.743 56.2549 389.573 56.3161C389.402 56.3774 389.22 56.4022 389.039 56.3891C388.857 56.3759 388.681 56.3251 388.52 56.2398Z" fill="black"/>
<path d="M426.26 58.7198L426.27 53.7898C426.273 53.4847 426.393 53.1926 426.606 52.9759C426.819 52.7592 427.108 52.635 427.41 52.6298L428.01 52.6198C428.957 52.5998 429.43 53.0631 429.43 54.0098L429.42 63.3298C429.42 67.0898 428.144 67.5865 425.59 64.8198C424.324 63.4398 422.974 61.7998 421.54 59.8998C420.42 58.4132 419.88 58.5998 419.92 60.4598L420.03 65.5198C420.037 66.0665 419.77 66.3464 419.23 66.3598L417.92 66.4098C417.287 66.4298 416.97 66.1265 416.97 65.4998L416.92 55.3098C416.9 51.9631 418.054 51.4964 420.38 53.9098C421.794 55.3764 423.234 57.1432 424.7 59.2098C425.734 60.6632 426.254 60.4998 426.26 58.7198Z" fill="black"/>
<path d="M445.51 61.2202C446.49 64.1202 450.12 64.3102 452.34 62.8502C453.173 62.3035 453.847 62.4536 454.36 63.3002C454.42 63.4069 454.463 63.5202 454.49 63.6402C454.637 64.4402 454.347 65.0236 453.62 65.3902C450.04 67.1836 446.933 66.9536 444.3 64.7002C441.02 61.8902 441.42 56.4202 444.81 53.9802C447.13 52.3069 449.963 52.1536 453.31 53.5203C454.157 53.8603 454.53 54.4836 454.43 55.3902C454.41 55.5702 454.35 55.7369 454.25 55.8902C453.857 56.4702 453.353 56.5902 452.74 56.2502C448.68 54.0402 443.79 56.2002 445.51 61.2202Z" fill="black"/>
<path d="M399.03 63.8L404 63.74C404.23 63.7365 404.455 63.8077 404.64 63.943C404.826 64.0783 404.963 64.2702 405.03 64.49L405.2 65.04C405.487 65.9467 405.157 66.4 404.21 66.4L395.55 66.41C395.137 66.41 394.93 66.2067 394.93 65.8L394.95 53.74C394.95 53.0267 395.304 52.68 396.01 52.7L396.94 52.73C397.734 52.75 398.127 53.1534 398.12 53.94L398.08 62.86C398.08 62.9852 398.105 63.1091 398.153 63.2245C398.201 63.3398 398.271 63.4443 398.36 63.5319C398.448 63.6194 398.553 63.6882 398.668 63.7343C398.783 63.7803 398.906 63.8027 399.03 63.8Z" fill="black"/>
<path d="M410.82 52.6802H409.5C408.986 52.6802 408.57 53.0965 408.57 53.6102V65.4302C408.57 65.9438 408.986 66.3602 409.5 66.3602H410.82C411.333 66.3602 411.75 65.9438 411.75 65.4302V53.6102C411.75 53.0965 411.333 52.6802 410.82 52.6802Z" fill="black"/>
<path d="M436.84 52.7402H435.42C434.945 52.7402 434.56 53.1253 434.56 53.6002V65.4402C434.56 65.9152 434.945 66.3002 435.42 66.3002H436.84C437.315 66.3002 437.7 65.9152 437.7 65.4402V53.6002C437.7 53.1253 437.315 52.7402 436.84 52.7402Z" fill="black"/>
<path d="M454.7 80.52H378.72C378.289 80.52 377.94 80.8692 377.94 81.3V99.68C377.94 100.111 378.289 100.46 378.72 100.46H454.7C455.131 100.46 455.48 100.111 455.48 99.68V81.3C455.48 80.8692 455.131 80.52 454.7 80.52Z" fill="black"/>
<path d="M100.15 154.21C106.437 150.27 112.88 148.903 119.48 150.11C133.9 152.74 135.89 166.83 130.48 178.29C127.667 184.263 123.32 188.887 117.44 192.16C107.53 197.68 96.1901 196.15 86.5101 190.56C86.1583 190.357 85.88 190.046 85.7149 189.672C85.5497 189.299 85.506 188.882 85.5901 188.48L98.4901 127C98.8501 125.293 99.8534 124.73 101.5 125.31L102.91 125.8C104.543 126.373 105.18 127.507 104.82 129.2L99.6301 153.85C99.5167 154.377 99.6901 154.497 100.15 154.21ZM119.04 152.95C111.96 149.24 103.77 153.12 99.5301 159.55C98.3567 161.323 97.5401 163.36 97.0801 165.66C95.6467 172.8 94.2301 179.52 92.8301 185.82C92.7398 186.221 92.7965 186.643 92.9901 187.01C94.3834 189.603 96.3167 191.397 98.7901 192.39C106.45 195.463 113.177 193.83 118.97 187.49C123.29 182.763 125.697 176.487 126.19 168.66C126.57 162.75 124.51 155.81 119.04 152.95Z" fill="black"/>
<path d="M261.47 150.48L269.94 150.49C270.214 150.49 270.35 150.627 270.35 150.9V151.24C270.357 151.347 270.307 151.4 270.2 151.4C267.054 151.474 263.947 151.487 260.88 151.44C260.778 151.44 260.679 151.474 260.599 151.538C260.519 151.602 260.463 151.691 260.44 151.79C257.774 164.237 255.1 176.77 252.42 189.39C252.127 190.79 252.314 192.194 252.98 193.6C253.05 193.742 253.157 193.863 253.289 193.949C253.421 194.036 253.573 194.084 253.73 194.09C254.824 194.137 255.78 193.66 256.6 192.66C256.674 192.574 256.764 192.557 256.87 192.61L257.11 192.75C257.25 192.83 257.267 192.927 257.16 193.04C255.26 195.227 253 196.017 250.38 195.41C245.39 194.25 246.25 186.77 246.99 183.2C249.304 172.107 251.484 161.754 253.53 152.14C253.624 151.687 253.44 151.46 252.98 151.46L247.56 151.45C247.4 151.45 247.324 151.374 247.33 151.22V150.92C247.337 150.627 247.484 150.48 247.77 150.48H253.34C253.734 150.48 253.97 150.29 254.05 149.91L256.71 137.28C257.07 135.58 258.074 135.007 259.72 135.56L261.12 136.04C262.767 136.594 263.41 137.72 263.05 139.42L260.86 149.72C260.754 150.227 260.957 150.48 261.47 150.48Z" fill="black"/>
<path d="M284.192 143.24C285.884 141.678 286.248 139.32 285.005 137.972C283.761 136.625 281.381 136.798 279.689 138.36C277.996 139.922 277.632 142.28 278.876 143.628C280.119 144.975 282.499 144.802 284.192 143.24Z" fill="black"/>
<path d="M145.19 190.861C143.277 189 141.84 186.688 140.961 184.056C140.082 181.423 139.778 178.522 140.067 175.519C140.356 172.515 141.232 169.467 142.645 166.549C144.058 163.632 145.981 160.901 148.302 158.514C152.991 153.692 159.023 150.56 165.071 149.807C171.118 149.054 176.687 150.742 180.55 154.499C182.463 156.359 183.9 158.672 184.779 161.304C185.658 163.937 185.962 166.837 185.673 169.841C185.384 172.845 184.508 175.893 183.095 178.81C181.682 181.728 179.759 184.459 177.438 186.846C172.749 191.668 166.717 194.8 160.669 195.553C154.622 196.306 149.053 194.618 145.19 190.861ZM156.49 193.506C160.399 194.709 164.823 193.667 168.789 190.609C172.755 187.552 175.938 182.73 177.638 177.204C179.338 171.678 179.416 165.9 177.854 161.143C176.292 156.385 173.219 153.036 169.31 151.834C165.401 150.631 160.977 151.673 157.011 154.73C153.045 157.788 149.862 162.61 148.162 168.136C146.462 173.662 146.384 179.439 147.946 184.197C149.508 188.955 152.581 192.304 156.49 193.506Z" fill="black"/>
<path d="M321.9 191.22C309.05 199.76 286.94 196.43 289.16 176.46C290.06 168.307 293.637 161.663 299.89 156.53C306.797 150.857 314.62 148.74 323.36 150.18C327.77 150.91 331.95 152.98 335.81 155.13C336.131 155.307 336.386 155.582 336.537 155.916C336.688 156.249 336.728 156.622 336.65 156.98C332.59 176.033 328.44 195.717 324.2 216.03C323.94 217.27 323.86 218.61 323.96 220.05C323.966 220.128 323.955 220.207 323.929 220.28C323.903 220.354 323.862 220.422 323.808 220.479C323.755 220.536 323.69 220.582 323.618 220.613C323.546 220.644 323.469 220.66 323.39 220.66L316.27 220.67C316.199 220.669 316.129 220.65 316.067 220.615C316.005 220.579 315.953 220.529 315.916 220.468C315.879 220.407 315.858 220.337 315.855 220.266C315.852 220.195 315.868 220.124 315.9 220.06C316.594 218.747 317.054 217.56 317.28 216.5C318.994 208.353 320.747 200.073 322.54 191.66C322.687 190.987 322.474 190.84 321.9 191.22ZM298.61 165.25C295.21 173.39 294.08 185.67 301.77 191.53C308.49 196.65 317.78 192.82 322.39 186.32C323.81 184.32 324.86 181.52 325.54 177.92C326.747 171.527 328.057 165.303 329.47 159.25C329.547 158.93 329.493 158.592 329.32 158.31C326.874 154.323 323.164 152.093 318.19 151.62C308.82 150.72 302.02 157.09 298.61 165.25Z" fill="black"/>
<path d="M403.73 178.14C403.39 188.35 410.3 195.71 420.81 193.01C425.623 191.77 429.683 189.16 432.99 185.18C433.37 184.72 433.813 184.643 434.32 184.95L434.56 185.1C434.96 185.34 435.01 185.64 434.71 186C428.563 193.453 420.603 196.527 410.83 195.22C401.11 193.91 396.23 185.14 397.1 175.71C397.68 169.49 399.927 164.143 403.84 159.67C411 151.5 421.75 147.74 432.26 151.07C440.93 153.81 441.41 162.22 435.64 168.1C428.25 175.63 414.73 177.63 404.41 177.49C403.97 177.483 403.743 177.7 403.73 178.14ZM424.81 151.45C412.14 150.51 404.85 164.87 403.76 175.41C403.72 175.777 403.883 175.957 404.25 175.95C408.423 175.917 412.62 175.467 416.84 174.6C424.15 173.1 432.74 168.08 433.09 159.85C433.32 154.66 429.73 151.82 424.81 151.45Z" fill="black"/>
<path d="M224.39 188.36C223.28 189.45 222.15 190.65 220.87 191.54C215.557 195.253 209.673 196.46 203.22 195.16C193.36 193.17 191.57 183.86 193.31 175.46C194.877 167.887 196.503 160.153 198.19 152.26C198.537 150.653 199.487 150.12 201.04 150.66L202.7 151.24C204.287 151.793 204.897 152.89 204.53 154.53C202.817 162.25 201.253 169.78 199.84 177.12C198.77 182.72 198.42 192.37 205.96 193.85C214.24 195.49 219.95 190.86 224.17 184.3C225.57 182.133 226.557 179.617 227.13 176.75C228.857 168.03 230.573 159.823 232.28 152.13C232.627 150.577 233.543 150.077 235.03 150.63L236.95 151.34C238.357 151.867 238.903 152.867 238.59 154.34C235.983 166.407 233.487 178.123 231.1 189.49C230.82 190.823 231.017 192.187 231.69 193.58C231.87 193.953 232.167 194.133 232.58 194.12C233.593 194.087 234.463 193.627 235.19 192.74C235.337 192.56 235.5 192.543 235.68 192.69L235.88 192.85C235.887 192.855 235.893 192.861 235.897 192.869C235.902 192.876 235.904 192.884 235.905 192.893C235.906 192.901 235.905 192.91 235.903 192.918C235.9 192.926 235.896 192.934 235.89 192.94C233.91 195.313 231.49 196.11 228.63 195.33C225.7 194.53 224.92 191.35 225 188.63C225.02 188.037 224.817 187.947 224.39 188.36Z" fill="black"/>
<path d="M275.31 193.3C275.399 193.514 275.539 193.702 275.718 193.849C275.897 193.996 276.109 194.097 276.335 194.143C276.562 194.19 276.797 194.18 277.019 194.115C277.241 194.05 277.444 193.931 277.61 193.77C277.856 193.53 278.13 193.327 278.43 193.16C279.85 192.353 279.99 192.537 278.85 193.71C277.203 195.41 275.096 195.973 272.53 195.4C268.3 194.47 268.41 188.56 269.07 185.26C271.236 174.54 273.513 163.557 275.9 152.31C276.246 150.71 277.196 150.163 278.75 150.67L280.21 151.14C281.93 151.7 282.6 152.863 282.22 154.63C279.753 166.197 277.313 177.743 274.9 189.27C274.62 190.617 274.756 191.96 275.31 193.3Z" fill="black"/>
<path d="M376 188.71C370.307 194.677 363.227 196.787 354.76 195.04C346.01 193.23 343.63 184.5 345.1 176.81C346.68 168.617 348.404 160.4 350.27 152.16C350.617 150.627 351.53 150.12 353.01 150.64L354.72 151.24C356.294 151.8 356.9 152.894 356.54 154.52C354.794 162.38 353.19 170.13 351.73 177.77C350.977 181.71 351.114 185.357 352.14 188.71C353.13 191.91 355.92 193.69 359.18 194.09C367.22 195.06 372.72 189.96 376.6 183.57C377.734 181.697 378.537 179.583 379.01 177.23C380.73 168.623 382.487 160.267 384.28 152.16C384.627 150.613 385.544 150.107 387.03 150.64L388.83 151.28C390.324 151.82 390.904 152.863 390.57 154.41C387.97 166.537 385.5 178.094 383.16 189.08C382.84 190.56 382.994 192.037 383.62 193.51C383.703 193.701 383.841 193.862 384.016 193.973C384.191 194.084 384.394 194.138 384.6 194.13C385.627 194.084 386.524 193.573 387.29 192.6C387.315 192.57 387.351 192.551 387.39 192.545C387.428 192.54 387.468 192.549 387.5 192.57L387.75 192.75C387.777 192.767 387.8 192.79 387.817 192.817C387.834 192.844 387.844 192.875 387.848 192.907C387.852 192.94 387.849 192.973 387.839 193.004C387.829 193.036 387.812 193.065 387.79 193.09C386.204 194.944 384.294 195.777 382.06 195.59C378.66 195.304 377 193.16 377.08 189.16C377.1 188.087 376.74 187.937 376 188.71Z" fill="black"/>
</svg>
