<svg width="201" height="61" viewBox="0 0 201 61" fill="none" xmlns="http://www.w3.org/2000/svg">
<rect width="201" height="61" rx="30.5" fill="#252429"/>
<path d="M24.264 34.468L14.304 31.204V29.044L24.264 25.828V27.94L16.632 30.076L24.264 32.356V34.468ZM164.402 40.228L171.146 20.02H173.546L166.802 40.228H164.402ZM176.375 34.468V32.356L184.007 30.1L176.375 27.94V25.828L186.335 29.044V31.204L176.375 34.468Z" fill="#F0F3F0"/>
<path d="M27.321 38.5L33.225 20.812H36.297L42.201 38.5H39.681L38.121 33.868H31.353L29.817 38.5H27.321ZM31.929 31.684H37.521L34.737 22.924L31.929 31.684ZM44.9066 38.5V20.812H46.8746L55.5386 34.372V20.812H57.9386V38.5H55.9946L47.3306 24.94V38.5H44.9066ZM61.1895 38.5V20.812H68.3415C69.4455 20.812 70.3735 21.012 71.1255 21.412C71.8775 21.812 72.4855 22.396 72.9495 23.164C73.4135 23.916 73.7495 24.844 73.9575 25.948C74.1655 27.036 74.2695 28.276 74.2695 29.668C74.2695 31.556 74.0455 33.156 73.5975 34.468C73.1655 35.78 72.5095 36.78 71.6295 37.468C70.7495 38.156 69.6535 38.5 68.3415 38.5H61.1895ZM63.6135 36.34H68.1255C69.0055 36.34 69.7175 36.076 70.2615 35.548C70.8055 35.004 71.2055 34.236 71.4615 33.244C71.7175 32.236 71.8455 31.044 71.8455 29.668C71.8455 28.404 71.7735 27.348 71.6295 26.5C71.4855 25.636 71.2615 24.948 70.9575 24.436C70.6535 23.908 70.2615 23.532 69.7815 23.308C69.3175 23.084 68.7655 22.972 68.1255 22.972H63.6135V36.34ZM77.3379 38.5V20.812H84.4179C85.0259 20.812 85.6099 20.884 86.1699 21.028C86.7459 21.172 87.2579 21.436 87.7059 21.82C88.1539 22.204 88.5059 22.748 88.7619 23.452C89.0179 24.14 89.1459 25.044 89.1459 26.164C89.1459 27.076 89.0499 27.836 88.8579 28.444C88.6659 29.052 88.4099 29.54 88.0899 29.908C87.7859 30.26 87.4419 30.532 87.0579 30.724C86.6899 30.9 86.3219 31.036 85.9539 31.132L89.4819 38.5H87.0339L83.7699 31.468C83.5299 31.468 83.2339 31.468 82.8819 31.468C82.5459 31.452 82.1859 31.444 81.8019 31.444C81.4339 31.444 81.0659 31.436 80.6979 31.42C80.3459 31.404 80.0339 31.396 79.7619 31.396V38.5H77.3379ZM79.7619 29.524H84.0339C84.4179 29.524 84.7699 29.484 85.0899 29.404C85.4099 29.308 85.6899 29.14 85.9299 28.9C86.1859 28.644 86.3859 28.3 86.5299 27.868C86.6739 27.42 86.7459 26.852 86.7459 26.164C86.7459 25.492 86.6739 24.948 86.5299 24.532C86.3859 24.116 86.1859 23.796 85.9299 23.572C85.6739 23.348 85.3859 23.196 85.0659 23.116C84.7459 23.02 84.4019 22.972 84.0339 22.972H79.7619V29.524ZM92.0801 38.5V20.812H94.5041V38.5H92.0801ZM98.0098 38.5V20.812H100.434V38.5H98.0098ZM104.036 38.524C103.764 38.524 103.628 38.388 103.628 38.116V36.028C103.628 35.74 103.764 35.596 104.036 35.596H105.404C105.692 35.596 105.836 35.74 105.836 36.028V38.116C105.836 38.26 105.796 38.364 105.715 38.428C105.636 38.492 105.532 38.524 105.404 38.524H104.036ZM112.891 38.5V22.972H107.611V20.812H120.595V22.972H115.315V38.5H112.891ZM129.147 38.644C127.995 38.644 126.979 38.532 126.099 38.308C125.235 38.084 124.507 37.668 123.915 37.06C123.339 36.452 122.907 35.556 122.619 34.372C122.331 33.188 122.187 31.636 122.187 29.716C122.187 27.796 122.331 26.244 122.619 25.06C122.907 23.86 123.347 22.948 123.939 22.324C124.531 21.684 125.259 21.252 126.123 21.028C126.987 20.788 127.995 20.668 129.147 20.668C130.331 20.668 131.355 20.788 132.219 21.028C133.099 21.252 133.827 21.684 134.403 22.324C134.979 22.948 135.411 23.86 135.699 25.06C135.987 26.244 136.131 27.796 136.131 29.716C136.131 31.636 135.987 33.188 135.699 34.372C135.411 35.556 134.971 36.452 134.379 37.06C133.803 37.668 133.075 38.084 132.195 38.308C131.331 38.532 130.315 38.644 129.147 38.644ZM129.147 36.484C129.979 36.484 130.683 36.396 131.259 36.22C131.851 36.044 132.323 35.724 132.675 35.26C133.043 34.78 133.307 34.1 133.467 33.22C133.627 32.324 133.707 31.156 133.707 29.716C133.707 28.196 133.619 26.98 133.443 26.068C133.283 25.156 133.027 24.468 132.675 24.004C132.323 23.54 131.851 23.228 131.259 23.068C130.683 22.908 129.979 22.828 129.147 22.828C128.363 22.828 127.683 22.908 127.107 23.068C126.531 23.228 126.059 23.54 125.691 24.004C125.323 24.468 125.043 25.156 124.851 26.068C124.675 26.98 124.587 28.196 124.587 29.716C124.587 31.156 124.659 32.324 124.803 33.22C124.963 34.1 125.219 34.78 125.571 35.26C125.939 35.724 126.411 36.044 126.987 36.22C127.579 36.396 128.299 36.484 129.147 36.484ZM139.19 38.5V20.812H146.366C146.894 20.812 147.438 20.884 147.998 21.028C148.558 21.156 149.07 21.42 149.534 21.82C150.014 22.204 150.398 22.78 150.686 23.548C150.974 24.316 151.118 25.332 151.118 26.596C151.118 27.86 150.966 28.884 150.661 29.668C150.374 30.452 149.99 31.052 149.51 31.468C149.03 31.884 148.51 32.164 147.95 32.308C147.39 32.452 146.854 32.524 146.342 32.524C146.086 32.524 145.734 32.516 145.286 32.5C144.854 32.484 144.398 32.46 143.918 32.428C143.438 32.396 142.99 32.364 142.574 32.332C142.158 32.3 141.838 32.268 141.614 32.236V38.5H139.19ZM141.614 30.364H146.006C146.518 30.364 146.974 30.252 147.374 30.028C147.79 29.788 148.11 29.404 148.334 28.876C148.574 28.332 148.694 27.58 148.694 26.62C148.694 25.676 148.574 24.94 148.334 24.412C148.11 23.884 147.806 23.516 147.422 23.308C147.038 23.084 146.614 22.972 146.15 22.972H141.614V30.364ZM153.815 38.5V20.812H156.239V38.5H153.815ZM159.744 38.5V20.812H162.168V38.5H159.744Z" fill="#B1B1B1"/>
</svg>
