<svg width="220" height="220" viewBox="0 0 220 220" fill="none" xmlns="http://www.w3.org/2000/svg">
<rect width="220" height="220" rx="69" fill="white"/>
<path fill-rule="evenodd" clip-rule="evenodd" d="M52.915 97.1798C51.3855 95.6503 51.9282 93.0539 53.9423 92.2651L87.13 79.2671C88.2403 78.8323 88.5395 77.4011 87.6963 76.5579V76.5579C87.0505 75.9121 87.0505 74.865 87.6963 74.2192L100.969 60.9466C102.14 59.775 104.04 59.775 105.212 60.9466L111.9 67.6347C112.743 68.4778 114.005 68.7416 115.115 68.3068L138.898 58.9923C140.008 58.5575 141.27 58.8214 142.113 59.6644L160.336 77.887C161.179 78.73 161.443 79.9922 161.008 81.1023L151.693 104.885C151.259 105.995 151.522 107.257 152.365 108.1L159.438 115.173C160.61 116.345 160.61 118.244 159.438 119.416L146.318 132.536C145.588 133.266 144.405 133.266 143.675 132.536V132.536C142.722 131.583 141.104 131.922 140.613 133.176L127.735 166.058C126.946 168.072 124.35 168.615 122.82 167.085L105.436 149.7C104.558 148.823 104.311 147.495 104.816 146.36L110.544 133.48C110.684 133.165 110.615 132.796 110.372 132.552V132.552C110.046 132.227 109.518 132.227 109.193 132.552L81.7696 159.975C80.598 161.147 78.6985 161.147 77.5269 159.975L60.4093 142.858C59.2377 141.686 59.2377 139.787 60.4093 138.615L87.3901 111.634C87.96 111.064 87.96 110.14 87.3901 109.571V109.571C86.963 109.143 86.317 109.024 85.7651 109.269L73.278 114.822C72.1435 115.327 70.8155 115.08 69.9376 114.202L52.915 97.1798ZM109.268 118.531C110.584 119.847 112.767 119.66 113.84 118.14L131.155 93.614C133.099 90.8612 129.727 87.4896 126.974 89.4329L102.448 106.748C100.928 107.821 100.742 110.005 102.057 111.32L109.268 118.531Z" fill="#01565B"/>
</svg>
