<svg width="30" height="11" viewBox="0 0 30 11" fill="none" xmlns="http://www.w3.org/2000/svg">
<path d="M5.244 7.536C5.26 7.584 5.268 7.64 5.268 7.704C5.276 7.768 5.28 7.828 5.28 7.884C5.28 8.028 5.264 8.164 5.232 8.292C5.2 8.42 5.148 8.532 5.076 8.628C5.004 8.724 4.908 8.804 4.788 8.868C4.676 8.924 4.532 8.952 4.356 8.952C4.188 8.952 4.02 8.916 3.852 8.844C3.692 8.772 3.492 8.668 3.252 8.532L0.672 7.044C0.464 6.772 0.36 6.412 0.36 5.964C0.36 5.628 0.408 5.368 0.504 5.184C0.6 5 0.74 4.856 0.924 4.752L4.224 2.832C4.616 2.936 4.88 3.08 5.016 3.264C5.16 3.44 5.232 3.632 5.232 3.84C5.232 4.12 5.16 4.34 5.016 4.5C4.88 4.652 4.676 4.796 4.404 4.932L2.292 6L5.244 7.536ZM12.4398 8.028C12.4398 7.692 12.5438 7.412 12.7518 7.188C12.9598 6.964 13.2438 6.852 13.6038 6.852C13.9638 6.852 14.2478 6.964 14.4558 7.188C14.6638 7.412 14.7678 7.692 14.7678 8.028C14.7678 8.364 14.6638 8.644 14.4558 8.868C14.2478 9.092 13.9638 9.204 13.6038 9.204C13.2438 9.204 12.9598 9.092 12.7518 8.868C12.5438 8.644 12.4398 8.364 12.4398 8.028ZM21.6139 10.272C21.5019 10.288 21.3939 10.296 21.2899 10.296C21.1859 10.304 21.0899 10.308 21.0019 10.308C20.6659 10.308 20.4059 10.236 20.2219 10.092C20.0459 9.948 19.9579 9.716 19.9579 9.396C19.9579 9.18 19.9899 8.964 20.0539 8.748C20.1179 8.524 20.1739 8.328 20.2219 8.16L22.3339 0.539999C22.4539 0.524 22.5659 0.516 22.6699 0.516C22.7739 0.508 22.8699 0.504 22.9579 0.504C23.2779 0.504 23.5299 0.572 23.7139 0.707999C23.9059 0.844 24.0019 1.064 24.0019 1.368C24.0019 1.6 23.9699 1.82 23.9059 2.028C23.8419 2.236 23.7819 2.444 23.7259 2.652L21.6139 10.272ZM24.4432 4.248C24.4272 4.2 24.4152 4.144 24.4072 4.08C24.4072 4.016 24.4072 3.956 24.4072 3.9C24.4072 3.756 24.4232 3.62 24.4552 3.492C24.4872 3.364 24.5392 3.252 24.6112 3.156C24.6832 3.06 24.7752 2.984 24.8872 2.928C25.0072 2.864 25.1552 2.832 25.3312 2.832C25.4992 2.832 25.6632 2.868 25.8232 2.94C25.9912 3.012 26.1952 3.116 26.4352 3.252L29.0152 4.74C29.2232 5.012 29.3272 5.372 29.3272 5.82C29.3272 6.156 29.2792 6.416 29.1832 6.6C29.0872 6.784 28.9472 6.928 28.7632 7.032L25.4632 8.952C25.0712 8.848 24.8032 8.708 24.6592 8.532C24.5232 8.348 24.4552 8.152 24.4552 7.944C24.4552 7.664 24.5232 7.448 24.6592 7.296C24.8032 7.136 25.0112 6.988 25.2832 6.852L27.3952 5.784L24.4432 4.248Z" fill="#F0F3F0"/>
<path d="M8.76844 7.704C8.90444 7.704 9.05244 7.692 9.21244 7.668C9.38044 7.636 9.50444 7.596 9.58444 7.548V6.588L8.72044 6.66C8.49644 6.676 8.31244 6.724 8.16844 6.804C8.02444 6.884 7.95244 7.004 7.95244 7.164C7.95244 7.324 8.01244 7.456 8.13244 7.56C8.26044 7.656 8.47244 7.704 8.76844 7.704ZM8.67244 2.988C9.10444 2.988 9.49644 3.032 9.84844 3.12C10.2084 3.208 10.5124 3.344 10.7604 3.528C11.0164 3.704 11.2124 3.932 11.3484 4.212C11.4844 4.484 11.5524 4.808 11.5524 5.184V7.872C11.5524 8.08 11.4924 8.252 11.3724 8.388C11.2604 8.516 11.1244 8.628 10.9644 8.724C10.4444 9.036 9.71244 9.192 8.76844 9.192C8.34444 9.192 7.96044 9.152 7.61644 9.072C7.28044 8.992 6.98844 8.872 6.74044 8.712C6.50044 8.552 6.31244 8.348 6.17644 8.1C6.04844 7.852 5.98444 7.564 5.98444 7.236C5.98444 6.684 6.14844 6.26 6.47644 5.964C6.80444 5.668 7.31244 5.484 8.00044 5.412L9.57244 5.244V5.16C9.57244 4.928 9.46844 4.764 9.26044 4.668C9.06044 4.564 8.76844 4.512 8.38444 4.512C8.08044 4.512 7.78444 4.544 7.49644 4.608C7.20844 4.672 6.94844 4.752 6.71644 4.848C6.61244 4.776 6.52444 4.668 6.45244 4.524C6.38044 4.372 6.34444 4.216 6.34444 4.056C6.34444 3.848 6.39244 3.684 6.48844 3.564C6.59244 3.436 6.74844 3.328 6.95644 3.24C7.18844 3.152 7.46044 3.088 7.77244 3.048C8.09244 3.008 8.39244 2.988 8.67244 2.988ZM17.664 6.996C17.664 7.204 17.728 7.352 17.856 7.44C17.992 7.528 18.18 7.572 18.42 7.572C18.54 7.572 18.664 7.564 18.792 7.548C18.92 7.524 19.032 7.496 19.128 7.464C19.2 7.552 19.26 7.652 19.308 7.764C19.364 7.868 19.392 7.996 19.392 8.148C19.392 8.452 19.276 8.7 19.044 8.892C18.82 9.084 18.42 9.18 17.844 9.18C17.14 9.18 16.596 9.02 16.212 8.7C15.836 8.38 15.648 7.86 15.648 7.14V2.004C15.736 1.98 15.86 1.956 16.02 1.932C16.188 1.9 16.364 1.884 16.548 1.884C16.9 1.884 17.172 1.948 17.364 2.076C17.564 2.196 17.664 2.456 17.664 2.856V3.624H19.236C19.284 3.712 19.328 3.824 19.368 3.96C19.416 4.088 19.44 4.232 19.44 4.392C19.44 4.672 19.376 4.876 19.248 5.004C19.128 5.124 18.964 5.184 18.756 5.184H17.664V6.996Z" fill="#FE853A"/>
</svg>
