<svg width="76" height="12" viewBox="0 0 76 12" fill="none" xmlns="http://www.w3.org/2000/svg">
<path d="M5.244 7.536C5.26 7.584 5.268 7.64 5.268 7.704C5.276 7.768 5.28 7.828 5.28 7.884C5.28 8.028 5.264 8.164 5.232 8.292C5.2 8.42 5.148 8.532 5.076 8.628C5.004 8.724 4.908 8.804 4.788 8.868C4.676 8.924 4.532 8.952 4.356 8.952C4.188 8.952 4.02 8.916 3.852 8.844C3.692 8.772 3.492 8.668 3.252 8.532L0.672 7.044C0.464 6.772 0.36 6.412 0.36 5.964C0.36 5.628 0.408 5.368 0.504 5.184C0.6 5 0.74 4.856 0.924 4.752L4.224 2.832C4.616 2.936 4.88 3.08 5.016 3.264C5.16 3.44 5.232 3.632 5.232 3.84C5.232 4.12 5.16 4.34 5.016 4.5C4.88 4.652 4.676 4.796 4.404 4.932L2.292 6L5.244 7.536ZM38.1742 8.028C38.1742 7.692 38.2782 7.412 38.4862 7.188C38.6942 6.964 38.9782 6.852 39.3382 6.852C39.6982 6.852 39.9822 6.964 40.1902 7.188C40.3982 7.412 40.5022 7.692 40.5022 8.028C40.5022 8.364 40.3982 8.644 40.1902 8.868C39.9822 9.092 39.6982 9.204 39.3382 9.204C38.9782 9.204 38.6942 9.092 38.4862 8.868C38.2782 8.644 38.1742 8.364 38.1742 8.028ZM67.985 10.272C67.873 10.288 67.765 10.296 67.661 10.296C67.557 10.304 67.461 10.308 67.373 10.308C67.037 10.308 66.777 10.236 66.593 10.092C66.417 9.948 66.329 9.716 66.329 9.396C66.329 9.18 66.361 8.964 66.425 8.748C66.489 8.524 66.545 8.328 66.593 8.16L68.705 0.539999C68.825 0.524 68.937 0.516 69.041 0.516C69.145 0.508 69.241 0.504 69.329 0.504C69.649 0.504 69.901 0.572 70.085 0.707999C70.277 0.844 70.373 1.064 70.373 1.368C70.373 1.6 70.341 1.82 70.277 2.028C70.213 2.236 70.153 2.444 70.097 2.652L67.985 10.272ZM70.8143 4.248C70.7983 4.2 70.7863 4.144 70.7783 4.08C70.7783 4.016 70.7783 3.956 70.7783 3.9C70.7783 3.756 70.7943 3.62 70.8263 3.492C70.8583 3.364 70.9103 3.252 70.9823 3.156C71.0543 3.06 71.1463 2.984 71.2583 2.928C71.3783 2.864 71.5263 2.832 71.7023 2.832C71.8703 2.832 72.0343 2.868 72.1943 2.94C72.3623 3.012 72.5663 3.116 72.8063 3.252L75.3863 4.74C75.5943 5.012 75.6983 5.372 75.6983 5.82C75.6983 6.156 75.6503 6.416 75.5543 6.6C75.4583 6.784 75.3183 6.928 75.1343 7.032L71.8343 8.952C71.4423 8.848 71.1743 8.708 71.0303 8.532C70.8943 8.348 70.8263 8.152 70.8263 7.944C70.8263 7.664 70.8943 7.448 71.0303 7.296C71.1743 7.136 71.3823 6.988 71.6543 6.852L73.7663 5.784L70.8143 4.248Z" fill="#F0F3F0"/>
<path d="M8.76844 7.704C8.90444 7.704 9.05244 7.692 9.21244 7.668C9.38044 7.636 9.50444 7.596 9.58444 7.548V6.588L8.72044 6.66C8.49644 6.676 8.31244 6.724 8.16844 6.804C8.02444 6.884 7.95244 7.004 7.95244 7.164C7.95244 7.324 8.01244 7.456 8.13244 7.56C8.26044 7.656 8.47244 7.704 8.76844 7.704ZM8.67244 2.988C9.10444 2.988 9.49644 3.032 9.84844 3.12C10.2084 3.208 10.5124 3.344 10.7604 3.528C11.0164 3.704 11.2124 3.932 11.3484 4.212C11.4844 4.484 11.5524 4.808 11.5524 5.184V7.872C11.5524 8.08 11.4924 8.252 11.3724 8.388C11.2604 8.516 11.1244 8.628 10.9644 8.724C10.4444 9.036 9.71244 9.192 8.76844 9.192C8.34444 9.192 7.96044 9.152 7.61644 9.072C7.28044 8.992 6.98844 8.872 6.74044 8.712C6.50044 8.552 6.31244 8.348 6.17644 8.1C6.04844 7.852 5.98444 7.564 5.98444 7.236C5.98444 6.684 6.14844 6.26 6.47644 5.964C6.80444 5.668 7.31244 5.484 8.00044 5.412L9.57244 5.244V5.16C9.57244 4.928 9.46844 4.764 9.26044 4.668C9.06044 4.564 8.76844 4.512 8.38444 4.512C8.08044 4.512 7.78444 4.544 7.49644 4.608C7.20844 4.672 6.94844 4.752 6.71644 4.848C6.61244 4.776 6.52444 4.668 6.45244 4.524C6.38044 4.372 6.34444 4.216 6.34444 4.056C6.34444 3.848 6.39244 3.684 6.48844 3.564C6.59244 3.436 6.74844 3.328 6.95644 3.24C7.18844 3.152 7.46044 3.088 7.77244 3.048C8.09244 3.008 8.39244 2.988 8.67244 2.988ZM16.4958 5.304C16.4958 5.056 16.4238 4.876 16.2798 4.764C16.1438 4.644 15.9558 4.584 15.7158 4.584C15.5558 4.584 15.3958 4.604 15.2358 4.644C15.0838 4.684 14.9518 4.744 14.8398 4.824V8.988C14.7598 9.012 14.6318 9.036 14.4558 9.06C14.2878 9.084 14.1118 9.096 13.9278 9.096C13.7518 9.096 13.5918 9.084 13.4478 9.06C13.3118 9.036 13.1958 8.988 13.0998 8.916C13.0038 8.844 12.9278 8.748 12.8718 8.628C12.8238 8.5 12.7998 8.336 12.7998 8.136V4.536C12.7998 4.32 12.8438 4.144 12.9318 4.008C13.0278 3.872 13.1558 3.748 13.3158 3.636C13.5878 3.444 13.9278 3.288 14.3358 3.168C14.7518 3.048 15.2118 2.988 15.7158 2.988C16.6198 2.988 17.3158 3.188 17.8038 3.588C18.2918 3.98 18.5358 4.528 18.5358 5.232V8.988C18.4558 9.012 18.3278 9.036 18.1518 9.06C17.9838 9.084 17.8078 9.096 17.6238 9.096C17.4478 9.096 17.2878 9.084 17.1438 9.06C17.0078 9.036 16.8918 8.988 16.7958 8.916C16.6998 8.844 16.6238 8.748 16.5678 8.628C16.5198 8.5 16.4958 8.336 16.4958 8.136V5.304ZM19.5439 6.084C19.5439 5.556 19.6239 5.1 19.7839 4.716C19.9439 4.324 20.1639 4 20.4439 3.744C20.7319 3.488 21.0639 3.3 21.4399 3.18C21.8239 3.052 22.2359 2.988 22.6759 2.988C22.8359 2.988 22.9919 3.004 23.1439 3.036C23.2959 3.06 23.4199 3.092 23.5159 3.132V1.188C23.5959 1.164 23.7239 1.14 23.8999 1.116C24.0759 1.084 24.2559 1.068 24.4399 1.068C24.6159 1.068 24.7719 1.08 24.9079 1.104C25.0519 1.128 25.1719 1.176 25.2679 1.248C25.3639 1.32 25.4359 1.42 25.4839 1.548C25.5319 1.668 25.5559 1.828 25.5559 2.028V7.716C25.5559 8.092 25.3799 8.392 25.0279 8.616C24.7959 8.768 24.4959 8.9 24.1279 9.012C23.7599 9.132 23.3359 9.192 22.8559 9.192C22.3359 9.192 21.8679 9.12 21.4519 8.976C21.0439 8.832 20.6959 8.624 20.4079 8.352C20.1279 8.08 19.9119 7.756 19.7599 7.38C19.6159 6.996 19.5439 6.564 19.5439 6.084ZM22.9519 4.584C22.5199 4.584 22.1879 4.708 21.9559 4.956C21.7239 5.204 21.6079 5.58 21.6079 6.084C21.6079 6.58 21.7159 6.956 21.9319 7.212C22.1479 7.46 22.4599 7.584 22.8679 7.584C23.0119 7.584 23.1399 7.564 23.2519 7.524C23.3719 7.476 23.4639 7.424 23.5279 7.368V4.728C23.3679 4.632 23.1759 4.584 22.9519 4.584ZM28.8671 8.988C28.7871 9.012 28.6591 9.036 28.4831 9.06C28.3151 9.084 28.1391 9.096 27.9551 9.096C27.7791 9.096 27.6191 9.084 27.4751 9.06C27.3391 9.036 27.2231 8.988 27.1271 8.916C27.0311 8.844 26.9551 8.748 26.8991 8.628C26.8511 8.5 26.8271 8.336 26.8271 8.136V4.536C26.8271 4.352 26.8591 4.196 26.9231 4.068C26.9951 3.932 27.0951 3.812 27.2231 3.708C27.3511 3.604 27.5071 3.512 27.6911 3.432C27.8831 3.344 28.0871 3.268 28.3031 3.204C28.5191 3.14 28.7431 3.092 28.9751 3.06C29.2071 3.02 29.4391 3 29.6711 3C30.0551 3 30.3591 3.076 30.5831 3.228C30.8071 3.372 30.9191 3.612 30.9191 3.948C30.9191 4.06 30.9031 4.172 30.8711 4.284C30.8391 4.388 30.7991 4.484 30.7511 4.572C30.5831 4.572 30.4111 4.58 30.2351 4.596C30.0591 4.612 29.8871 4.636 29.7191 4.668C29.5511 4.7 29.3911 4.736 29.2391 4.776C29.0951 4.808 28.9711 4.848 28.8671 4.896V8.988ZM31.7127 1.548C31.7127 1.244 31.8127 0.987999 32.0127 0.779999C32.2207 0.572 32.4927 0.468 32.8287 0.468C33.1647 0.468 33.4327 0.572 33.6327 0.779999C33.8407 0.987999 33.9447 1.244 33.9447 1.548C33.9447 1.852 33.8407 2.108 33.6327 2.316C33.4327 2.524 33.1647 2.628 32.8287 2.628C32.4927 2.628 32.2207 2.524 32.0127 2.316C31.8127 2.108 31.7127 1.852 31.7127 1.548ZM33.8487 8.988C33.7607 9.004 33.6287 9.024 33.4527 9.048C33.2847 9.08 33.1127 9.096 32.9367 9.096C32.7607 9.096 32.6007 9.084 32.4567 9.06C32.3207 9.036 32.2047 8.988 32.1087 8.916C32.0127 8.844 31.9367 8.748 31.8807 8.628C31.8327 8.5 31.8087 8.336 31.8087 8.136V3.252C31.8967 3.236 32.0247 3.216 32.1927 3.192C32.3687 3.16 32.5447 3.144 32.7207 3.144C32.8967 3.144 33.0527 3.156 33.1887 3.18C33.3327 3.204 33.4527 3.252 33.5487 3.324C33.6447 3.396 33.7167 3.496 33.7647 3.624C33.8207 3.744 33.8487 3.904 33.8487 4.104V8.988ZM35.0994 1.548C35.0994 1.244 35.1994 0.987999 35.3994 0.779999C35.6074 0.572 35.8794 0.468 36.2154 0.468C36.5514 0.468 36.8194 0.572 37.0194 0.779999C37.2274 0.987999 37.3314 1.244 37.3314 1.548C37.3314 1.852 37.2274 2.108 37.0194 2.316C36.8194 2.524 36.5514 2.628 36.2154 2.628C35.8794 2.628 35.6074 2.524 35.3994 2.316C35.1994 2.108 35.0994 1.852 35.0994 1.548ZM37.2354 8.988C37.1474 9.004 37.0154 9.024 36.8394 9.048C36.6714 9.08 36.4994 9.096 36.3234 9.096C36.1474 9.096 35.9874 9.084 35.8434 9.06C35.7074 9.036 35.5914 8.988 35.4954 8.916C35.3994 8.844 35.3234 8.748 35.2674 8.628C35.2194 8.5 35.1954 8.336 35.1954 8.136V3.252C35.2834 3.236 35.4114 3.216 35.5794 3.192C35.7554 3.16 35.9314 3.144 36.1074 3.144C36.2834 3.144 36.4394 3.156 36.5754 3.18C36.7194 3.204 36.8394 3.252 36.9354 3.324C37.0314 3.396 37.1034 3.496 37.1514 3.624C37.2074 3.744 37.2354 3.904 37.2354 4.104V8.988ZM43.3984 6.996C43.3984 7.204 43.4624 7.352 43.5904 7.44C43.7264 7.528 43.9144 7.572 44.1544 7.572C44.2744 7.572 44.3984 7.564 44.5264 7.548C44.6544 7.524 44.7664 7.496 44.8624 7.464C44.9344 7.552 44.9944 7.652 45.0424 7.764C45.0984 7.868 45.1264 7.996 45.1264 8.148C45.1264 8.452 45.0104 8.7 44.7784 8.892C44.5544 9.084 44.1544 9.18 43.5784 9.18C42.8744 9.18 42.3304 9.02 41.9464 8.7C41.5704 8.38 41.3824 7.86 41.3824 7.14V2.004C41.4704 1.98 41.5944 1.956 41.7544 1.932C41.9224 1.9 42.0984 1.884 42.2824 1.884C42.6344 1.884 42.9064 1.948 43.0984 2.076C43.2984 2.196 43.3984 2.456 43.3984 2.856V3.624H44.9704C45.0184 3.712 45.0624 3.824 45.1024 3.96C45.1504 4.088 45.1744 4.232 45.1744 4.392C45.1744 4.672 45.1104 4.876 44.9824 5.004C44.8624 5.124 44.6984 5.184 44.4904 5.184H43.3984V6.996ZM52.1288 6.084C52.1288 6.58 52.0528 7.024 51.9008 7.416C51.7488 7.8 51.5328 8.124 51.2528 8.388C50.9808 8.652 50.6528 8.852 50.2688 8.988C49.8848 9.124 49.4568 9.192 48.9848 9.192C48.5128 9.192 48.0848 9.12 47.7008 8.976C47.3168 8.832 46.9848 8.628 46.7048 8.364C46.4328 8.092 46.2208 7.764 46.0688 7.38C45.9168 6.996 45.8408 6.564 45.8408 6.084C45.8408 5.612 45.9168 5.184 46.0688 4.8C46.2208 4.416 46.4328 4.092 46.7048 3.828C46.9848 3.556 47.3168 3.348 47.7008 3.204C48.0848 3.06 48.5128 2.988 48.9848 2.988C49.4568 2.988 49.8848 3.064 50.2688 3.216C50.6528 3.36 50.9808 3.568 51.2528 3.84C51.5328 4.104 51.7488 4.428 51.9008 4.812C52.0528 5.196 52.1288 5.62 52.1288 6.084ZM47.9288 6.084C47.9288 6.572 48.0208 6.948 48.2048 7.212C48.3968 7.468 48.6608 7.596 48.9967 7.596C49.3328 7.596 49.5888 7.464 49.7648 7.2C49.9488 6.936 50.0408 6.564 50.0408 6.084C50.0408 5.604 49.9488 5.236 49.7648 4.98C49.5808 4.716 49.3208 4.584 48.9848 4.584C48.6488 4.584 48.3888 4.716 48.2048 4.98C48.0208 5.236 47.9288 5.604 47.9288 6.084ZM55.8 2.988C56.28 2.988 56.724 3.052 57.132 3.18C57.548 3.3 57.904 3.488 58.2 3.744C58.496 4 58.728 4.324 58.896 4.716C59.064 5.1 59.148 5.56 59.148 6.096C59.148 6.608 59.076 7.056 58.932 7.44C58.788 7.824 58.584 8.148 58.32 8.412C58.056 8.668 57.736 8.86 57.36 8.988C56.992 9.116 56.58 9.18 56.124 9.18C55.78 9.18 55.46 9.128 55.164 9.024V11.016C55.084 11.04 54.956 11.064 54.78 11.088C54.604 11.12 54.424 11.136 54.24 11.136C54.064 11.136 53.904 11.124 53.76 11.1C53.624 11.076 53.508 11.028 53.412 10.956C53.316 10.884 53.244 10.784 53.196 10.656C53.148 10.536 53.124 10.376 53.124 10.176V4.416C53.124 4.2 53.168 4.024 53.256 3.888C53.352 3.752 53.48 3.628 53.64 3.516C53.888 3.356 54.196 3.228 54.564 3.132C54.932 3.036 55.344 2.988 55.8 2.988ZM55.824 7.572C56.648 7.572 57.06 7.08 57.06 6.096C57.06 5.584 56.956 5.204 56.748 4.956C56.548 4.708 56.256 4.584 55.872 4.584C55.72 4.584 55.584 4.604 55.464 4.644C55.344 4.676 55.24 4.716 55.152 4.764V7.404C55.248 7.452 55.352 7.492 55.464 7.524C55.576 7.556 55.696 7.572 55.824 7.572ZM60.0955 1.548C60.0955 1.244 60.1955 0.987999 60.3955 0.779999C60.6035 0.572 60.8755 0.468 61.2115 0.468C61.5475 0.468 61.8155 0.572 62.0155 0.779999C62.2235 0.987999 62.3275 1.244 62.3275 1.548C62.3275 1.852 62.2235 2.108 62.0155 2.316C61.8155 2.524 61.5475 2.628 61.2115 2.628C60.8755 2.628 60.6035 2.524 60.3955 2.316C60.1955 2.108 60.0955 1.852 60.0955 1.548ZM62.2315 8.988C62.1435 9.004 62.0115 9.024 61.8355 9.048C61.6675 9.08 61.4955 9.096 61.3195 9.096C61.1435 9.096 60.9835 9.084 60.8395 9.06C60.7035 9.036 60.5875 8.988 60.4915 8.916C60.3955 8.844 60.3195 8.748 60.2635 8.628C60.2155 8.5 60.1915 8.336 60.1915 8.136V3.252C60.2795 3.236 60.4075 3.216 60.5755 3.192C60.7515 3.16 60.9275 3.144 61.1035 3.144C61.2795 3.144 61.4355 3.156 61.5715 3.18C61.7155 3.204 61.8355 3.252 61.9315 3.324C62.0275 3.396 62.0995 3.496 62.1475 3.624C62.2035 3.744 62.2315 3.904 62.2315 4.104V8.988ZM63.4823 1.548C63.4823 1.244 63.5823 0.987999 63.7823 0.779999C63.9903 0.572 64.2623 0.468 64.5983 0.468C64.9343 0.468 65.2023 0.572 65.4023 0.779999C65.6103 0.987999 65.7143 1.244 65.7143 1.548C65.7143 1.852 65.6103 2.108 65.4023 2.316C65.2023 2.524 64.9343 2.628 64.5983 2.628C64.2623 2.628 63.9903 2.524 63.7823 2.316C63.5823 2.108 63.4823 1.852 63.4823 1.548ZM65.6183 8.988C65.5303 9.004 65.3983 9.024 65.2223 9.048C65.0543 9.08 64.8823 9.096 64.7063 9.096C64.5303 9.096 64.3703 9.084 64.2263 9.06C64.0903 9.036 63.9743 8.988 63.8783 8.916C63.7823 8.844 63.7063 8.748 63.6503 8.628C63.6023 8.5 63.5783 8.336 63.5783 8.136V3.252C63.6663 3.236 63.7943 3.216 63.9623 3.192C64.1383 3.16 64.3143 3.144 64.4902 3.144C64.6663 3.144 64.8223 3.156 64.9583 3.18C65.1023 3.204 65.2223 3.252 65.3183 3.324C65.4143 3.396 65.4863 3.496 65.5343 3.624C65.5903 3.744 65.6183 3.904 65.6183 4.104V8.988Z" fill="#FE853A"/>
</svg>
