<svg width="105.083984" height="12.178223" viewBox="0 0 105.084 12.1782" fill="none" xmlns="http://www.w3.org/2000/svg" xmlns:xlink="http://www.w3.org/1999/xlink">
	<desc>
			Created with Pixso.
	</desc>
	<defs/>
	<path id="&lt;ANDRIITOPII/&gt;" d="M5.55762 10.8486Q5.50293 10.8486 5.43115 10.8145Q5.36279 10.7769 5.29102 10.7358L0.406738 7.40332Q0.208496 7.26318 0.102539 7.1333Q0 7 0 6.78809L0 6.41211Q0 6.2002 0.102539 6.06689Q0.208496 5.93359 0.406738 5.79346L5.29102 2.46094Q5.36279 2.43359 5.43115 2.39941Q5.50293 2.36523 5.55762 2.36523Q5.67041 2.36523 5.75244 2.44385Q5.83789 2.51904 5.83789 2.64551L5.83789 3.93408Q5.83789 4.12891 5.7251 4.24854Q5.6123 4.36475 5.47559 4.4502L2.23877 6.60693L5.47559 8.76367Q5.6123 8.8457 5.7251 8.9585Q5.83789 9.07129 5.83789 9.27979L5.83789 10.5547Q5.83789 10.6948 5.75244 10.7734Q5.67041 10.8486 5.55762 10.8486ZM91.7128 12.1782Q91.5864 12.1782 91.5009 12.0859Q91.4189 11.9971 91.4189 11.8843Q91.4189 11.8159 91.4462 11.7441L96.2075 0.321289Q96.2485 0.208496 96.3544 0.105957Q96.4604 0 96.6689 0L97.749 0Q97.8754 0 97.9575 0.0922852Q98.0429 0.181152 98.0429 0.293945Q98.0429 0.348633 98.0156 0.434082L93.2407 11.8569Q93.1962 11.9561 93.0903 12.0654Q92.9877 12.1782 92.7656 12.1782L91.7128 12.1782ZM99.5264 10.8486Q99.4136 10.8486 99.3281 10.7734Q99.2461 10.6948 99.2461 10.5547L99.2461 9.27979Q99.2461 9.07129 99.3555 8.9585Q99.4683 8.8457 99.6084 8.76367L102.845 6.60693L99.6084 4.4502Q99.4683 4.36475 99.3555 4.24854Q99.2461 4.12891 99.2461 3.93408L99.2461 2.64551Q99.2461 2.51904 99.3281 2.44385Q99.4136 2.36523 99.5264 2.36523Q99.5947 2.36523 99.6631 2.39941Q99.7349 2.43359 99.793 2.46094L104.677 5.79346Q104.889 5.93359 104.985 6.06689Q105.084 6.2002 105.084 6.41211L105.084 6.78809Q105.084 7 104.985 7.1333Q104.889 7.26318 104.677 7.40332L99.793 10.7358Q99.7349 10.7769 99.6631 10.8145Q99.5947 10.8486 99.5264 10.8486Z" fill="#EEEB94" fill-opacity="1.000000" fill-rule="evenodd"/>
	<path id="&lt;ANDRIITOPII/&gt;" d="M7.16734 11.0024Q7.04088 11.0024 6.95543 10.9136Q6.8734 10.8213 6.8734 10.7085Q6.8734 10.6401 6.88707 10.582L10.2196 1.5791Q10.2606 1.42529 10.3871 1.31592Q10.5135 1.20312 10.7391 1.20312L12.5301 1.20312Q12.7523 1.20312 12.8788 1.31592Q13.0052 1.42529 13.0463 1.5791L16.3788 10.582Q16.3924 10.6401 16.3924 10.7085Q16.3924 10.8213 16.307 10.9136Q16.225 11.0024 16.0985 11.0024L14.6424 11.0024Q14.4339 11.0024 14.3348 10.9067Q14.2391 10.8076 14.2084 10.7222L13.6068 9.15332L9.65904 9.15332L9.05748 10.7222Q9.03014 10.8076 8.93102 10.9067Q8.83531 11.0024 8.6234 11.0024L7.16734 11.0024ZM10.1786 7.34863L13.077 7.34863L11.6346 3.31543L10.1786 7.34863ZM17.9496 11.0024Q17.7924 11.0024 17.6933 10.9067Q17.5976 10.8076 17.5976 10.6538L17.5976 1.55176Q17.5976 1.39795 17.6933 1.30225Q17.7924 1.20312 17.9496 1.20312L19.2211 1.20312Q19.433 1.20312 19.5287 1.30225Q19.6278 1.39795 19.6552 1.45605L23.3944 7.29395L23.3944 1.55176Q23.3944 1.39795 23.4901 1.30225Q23.5893 1.20312 23.7294 1.20312L25.1581 1.20312Q25.3119 1.20312 25.4076 1.30225Q25.5067 1.39795 25.5067 1.55176L25.5067 10.6538Q25.5067 10.7939 25.4076 10.8999Q25.3119 11.0024 25.1581 11.0024L23.8695 11.0024Q23.661 11.0024 23.5688 10.8999Q23.4765 10.7939 23.4355 10.7495L19.7133 5.09277L19.7133 10.6538Q19.7133 10.8076 19.6142 10.9067Q19.515 11.0024 19.3612 11.0024L17.9496 11.0024ZM27.9316 11.0024Q27.7744 11.0024 27.6753 10.9067Q27.5796 10.8076 27.5796 10.6538L27.5796 1.55176Q27.5796 1.39795 27.6753 1.30225Q27.7744 1.20312 27.9316 1.20312L31.4453 1.20312Q32.8432 1.20312 33.7798 1.64404Q34.7197 2.08496 35.2153 2.93262Q35.7143 3.77686 35.7417 5.02441Q35.7553 5.63965 35.7553 6.10449Q35.7553 6.56592 35.7417 7.16748Q35.7007 8.46973 35.2221 9.32422Q34.747 10.1753 33.8242 10.5889Q32.9013 11.0024 31.5136 11.0024L27.9316 11.0024ZM29.8047 9.19775L31.4453 9.19775Q32.1426 9.19775 32.5903 8.98926Q33.0415 8.77734 33.2568 8.32275Q33.4756 7.86475 33.4892 7.14014Q33.5029 6.7334 33.5097 6.41211Q33.5166 6.0874 33.5097 5.76611Q33.5029 5.44482 33.4892 5.05176Q33.4585 4.00244 32.9458 3.50684Q32.4365 3.00781 31.3735 3.00781L29.8047 3.00781L29.8047 9.19775ZM37.8576 11.0024Q37.7004 11.0024 37.6013 10.9067Q37.5056 10.8076 37.5056 10.6538L37.5056 1.55176Q37.5056 1.39795 37.6013 1.30225Q37.7004 1.20312 37.8576 1.20312L41.5661 1.20312Q43.3161 1.20312 44.3244 2.00977Q45.3327 2.81299 45.3327 4.32373Q45.3327 5.3457 44.8405 6.03271Q44.3518 6.71973 43.5246 7.05469L45.5002 10.5547Q45.5412 10.6401 45.5412 10.7085Q45.5412 10.8213 45.4558 10.9136Q45.3737 11.0024 45.2473 11.0024L43.6955 11.0024Q43.4426 11.0024 43.3161 10.8691Q43.1896 10.7358 43.135 10.623L41.426 7.41699L39.7307 7.41699L39.7307 10.6538Q39.7307 10.8076 39.6315 10.9067Q39.5358 11.0024 39.382 11.0024L37.8576 11.0024ZM39.7307 5.63965L41.5251 5.63965Q42.2941 5.63965 42.6633 5.29102Q43.0358 4.93896 43.0358 4.31006Q43.0358 3.68115 42.6701 3.31885Q42.3078 2.95312 41.5251 2.95312L39.7307 2.95312L39.7307 5.63965ZM47.4056 11.0024Q47.2484 11.0024 47.1493 10.9067Q47.0536 10.8076 47.0536 10.6538L47.0536 1.55176Q47.0536 1.39795 47.1493 1.30225Q47.2484 1.20312 47.4056 1.20312L48.9847 1.20312Q49.1385 1.20312 49.2376 1.30225Q49.3368 1.39795 49.3368 1.55176L49.3368 10.6538Q49.3368 10.8076 49.2376 10.9067Q49.1385 11.0024 48.9847 11.0024L47.4056 11.0024ZM51.7596 11.0024Q51.6024 11.0024 51.5033 10.9067Q51.4076 10.8076 51.4076 10.6538L51.4076 1.55176Q51.4076 1.39795 51.5033 1.30225Q51.6024 1.20312 51.7596 1.20312L53.3387 1.20312Q53.4925 1.20312 53.5916 1.30225Q53.6908 1.39795 53.6908 1.55176L53.6908 10.6538Q53.6908 10.8076 53.5916 10.9067Q53.4925 11.0024 53.3387 11.0024L51.7596 11.0024ZM58.2669 11.0024Q58.1131 11.0024 58.014 10.9067Q57.9183 10.8076 57.9183 10.6538L57.9183 3.14795L55.3685 3.14795Q55.2284 3.14795 55.1292 3.05225Q55.0335 2.95312 55.0335 2.81299L55.0335 1.55176Q55.0335 1.39795 55.1292 1.30225Q55.2284 1.20312 55.3685 1.20312L62.7069 1.20312Q62.8607 1.20312 62.9564 1.30225Q63.0555 1.39795 63.0555 1.55176L63.0555 2.81299Q63.0555 2.95312 62.9564 3.05225Q62.8607 3.14795 62.7069 3.14795L60.1707 3.14795L60.1707 10.6538Q60.1707 10.8076 60.0716 10.9067Q59.9759 11.0024 59.8221 11.0024L58.2669 11.0024ZM68.1246 11.1426Q66.8497 11.1426 65.9235 10.7222Q65.0006 10.3018 64.4811 9.45752Q63.965 8.60986 63.924 7.32129Q63.9103 6.71973 63.9103 6.125Q63.9103 5.52686 63.924 4.91162Q63.965 3.65381 64.4879 2.79248Q65.0143 1.93115 65.944 1.49707Q66.8771 1.06299 68.1246 1.06299Q69.3551 1.06299 70.2848 1.49707Q71.2179 1.93115 71.7477 2.79248Q72.2809 3.65381 72.3082 4.91162Q72.339 5.52686 72.339 6.125Q72.339 6.71973 72.3082 7.32129Q72.2672 8.60986 71.7477 9.45752Q71.2316 10.3018 70.3053 10.7222Q69.3824 11.1426 68.1246 11.1426ZM68.1246 9.33789Q68.9347 9.33789 69.4611 8.84229Q69.9874 8.34326 70.0148 7.24951Q70.0421 6.63428 70.0421 6.09766Q70.0421 5.55762 70.0148 4.95605Q70.0011 4.22803 69.7482 3.7666Q69.4952 3.30176 69.0817 3.08643Q68.6715 2.86768 68.1246 2.86768Q67.5778 2.86768 67.1573 3.08643Q66.7369 3.30176 66.4908 3.7666Q66.2482 4.22803 66.2208 4.95605Q66.2072 5.55762 66.2072 6.09766Q66.2072 6.63428 66.2208 7.24951Q66.2618 8.34326 66.778 8.84229Q67.2975 9.33789 68.1246 9.33789ZM74.4256 11.0024Q74.2684 11.0024 74.1693 10.9067Q74.0736 10.8076 74.0736 10.6538L74.0736 1.55176Q74.0736 1.39795 74.1693 1.30225Q74.2684 1.20312 74.4256 1.20312L78.2469 1.20312Q79.3783 1.20312 80.2122 1.55518Q81.0462 1.90381 81.5145 2.61133Q81.9827 3.31543 81.9827 4.36475Q81.9827 5.43115 81.5145 6.125Q81.0462 6.81543 80.2122 7.15381Q79.3783 7.48877 78.2469 7.48877L76.3704 7.48877L76.3704 10.6538Q76.3704 10.8076 76.2713 10.9067Q76.1756 11.0024 76.0184 11.0024L74.4256 11.0024ZM76.3294 5.75244L78.1751 5.75244Q78.8895 5.75244 79.2894 5.40381Q79.6893 5.05176 79.6893 4.35107Q79.6893 3.73584 79.3304 3.34619Q78.9749 2.95312 78.1751 2.95312L76.3294 2.95312L76.3294 5.75244ZM83.7636 11.0024Q83.6064 11.0024 83.5073 10.9067Q83.4116 10.8076 83.4116 10.6538L83.4116 1.55176Q83.4116 1.39795 83.5073 1.30225Q83.6064 1.20312 83.7636 1.20312L85.3427 1.20312Q85.4965 1.20312 85.5956 1.30225Q85.6948 1.39795 85.6948 1.55176L85.6948 10.6538Q85.6948 10.8076 85.5956 10.9067Q85.4965 11.0024 85.3427 11.0024L83.7636 11.0024ZM88.1176 11.0024Q87.9604 11.0024 87.8613 10.9067Q87.7656 10.8076 87.7656 10.6538L87.7656 1.55176Q87.7656 1.39795 87.8613 1.30225Q87.9604 1.20312 88.1176 1.20312L89.6967 1.20312Q89.8505 1.20312 89.9496 1.30225Q90.0488 1.39795 90.0488 1.55176L90.0488 10.6538Q90.0488 10.8076 89.9496 10.9067Q89.8505 11.0024 89.6967 11.0024L88.1176 11.0024Z" fill="#F0F0F0" fill-opacity="1.000000" fill-rule="evenodd"/>
</svg>
