<svg width="489" height="488" viewBox="0 0 489 488" fill="none" xmlns="http://www.w3.org/2000/svg">
<path d="M235.214 437H237.856C238.013 437.76 238.286 438.428 238.677 439.003C239.06 439.578 239.529 440.061 240.083 440.452C240.63 440.849 241.237 441.148 241.905 441.347C242.572 441.545 243.268 441.645 243.993 441.645C245.314 441.645 246.51 441.311 247.583 440.643C248.648 439.976 249.497 438.992 250.129 437.692C250.754 436.393 251.066 434.798 251.066 432.909C251.066 431.02 250.754 429.425 250.129 428.126C249.497 426.826 248.648 425.842 247.583 425.175C246.51 424.507 245.314 424.173 243.993 424.173C243.268 424.173 242.572 424.273 241.905 424.472C241.237 424.67 240.63 424.965 240.083 425.356C239.529 425.754 239.06 426.24 238.677 426.815C238.286 427.398 238.013 428.065 237.856 428.818H235.214C235.413 427.703 235.775 426.705 236.301 425.825C236.826 424.944 237.48 424.195 238.261 423.577C239.042 422.966 239.919 422.501 240.892 422.181C241.858 421.862 242.892 421.702 243.993 421.702C245.853 421.702 247.508 422.156 248.957 423.065C250.406 423.974 251.546 425.267 252.377 426.943C253.208 428.619 253.623 430.608 253.623 432.909C253.623 435.21 253.208 437.199 252.377 438.875C251.546 440.551 250.406 441.844 248.957 442.753C247.508 443.662 245.853 444.116 243.993 444.116C242.892 444.116 241.858 443.957 240.892 443.637C239.919 443.317 239.042 442.849 238.261 442.231C237.48 441.62 236.826 440.874 236.301 439.994C235.775 439.12 235.413 438.122 235.214 437Z" fill="#F0F3F0"/>
<path d="M202.965 429.247C203.344 426.977 204.081 425.084 205.177 423.567C206.272 422.051 207.61 420.963 209.188 420.305C210.767 419.647 212.474 419.471 214.309 419.777C216.145 420.084 217.702 420.804 218.982 421.939C220.261 423.075 221.173 424.537 221.717 426.327C222.26 428.117 222.343 430.147 221.964 432.417C221.585 434.687 220.848 436.58 219.753 438.096C218.657 439.613 217.32 440.7 215.741 441.358C214.163 442.017 212.456 442.193 210.62 441.886C208.785 441.58 207.227 440.859 205.948 439.724C204.668 438.589 203.757 437.126 203.213 435.336C202.669 433.546 202.587 431.516 202.965 429.247ZM205.487 429.668C205.176 431.531 205.226 433.156 205.635 434.542C206.038 435.927 206.713 437.037 207.661 437.872C208.602 438.705 209.724 439.231 211.027 439.449C212.33 439.666 213.565 439.534 214.733 439.052C215.894 438.569 216.893 437.738 217.73 436.56C218.561 435.381 219.131 433.86 219.442 431.996C219.753 430.133 219.707 428.509 219.305 427.124C218.895 425.738 218.22 424.628 217.279 423.794C216.331 422.959 215.206 422.433 213.903 422.215C212.6 421.998 211.368 422.131 210.207 422.614C209.039 423.096 208.04 423.926 207.21 425.105C206.373 426.283 205.798 427.804 205.487 429.668Z" fill="#F0F3F0"/>
<path d="M170.492 430.51L177.576 409.874L179.994 410.704L185.677 430.767L185.879 430.837L191.441 414.634L193.94 415.492L186.856 436.128L184.437 435.298L178.728 415.181L178.527 415.111L172.95 431.354L170.492 430.51Z" fill="#F0F3F0"/>
<path d="M157.668 422.201L156.553 424.263L142.161 416.474L143.277 414.413L149.311 417.678L158.579 400.551L160.903 401.809L151.634 418.936L157.668 422.201Z" fill="#F0F3F0"/>
<path d="M139.516 388.517L141.702 390.219L121.979 402.515L119.826 400.84L126.905 378.702L129.091 380.403L122.955 398.902L123.09 399.006L139.516 388.517ZM133.474 394.615L124.663 387.757L126.103 385.908L134.914 392.765L133.474 394.615Z" fill="#F0F3F0"/>
<path d="M96.1163 368.469L97.9057 370.413C97.4525 371.043 97.1465 371.696 96.9878 372.373C96.8243 373.045 96.7864 373.717 96.8742 374.389C96.952 375.061 97.1438 375.71 97.4497 376.335C97.7555 376.961 98.1538 377.541 98.6444 378.074C99.5391 379.046 100.595 379.7 101.813 380.037C103.025 380.368 104.324 380.327 105.708 379.911C107.088 379.491 108.473 378.641 109.863 377.361C111.252 376.082 112.214 374.772 112.747 373.432C113.275 372.087 113.424 370.796 113.194 369.56C112.958 368.319 112.393 367.212 111.499 366.24C111.008 365.708 110.463 365.263 109.865 364.906C109.267 364.55 108.638 364.303 107.981 364.165C107.313 364.027 106.637 364.011 105.954 364.119C105.261 364.226 104.585 364.477 103.925 364.872L102.136 362.928C103.091 362.319 104.07 361.91 105.074 361.7C106.078 361.49 107.072 361.463 108.056 361.62C109.034 361.781 109.971 362.111 110.865 362.61C111.754 363.105 112.572 363.757 113.317 364.567C114.577 365.936 115.364 367.461 115.676 369.143C115.989 370.824 115.81 372.538 115.139 374.285C114.469 376.032 113.287 377.684 111.594 379.243C109.901 380.801 108.157 381.842 106.361 382.366C104.565 382.89 102.842 382.927 101.192 382.477C99.5415 382.026 98.0863 381.117 96.826 379.748C96.0804 378.938 95.4981 378.069 95.0791 377.142C94.6552 376.21 94.406 375.247 94.3315 374.254C94.2517 373.265 94.3578 372.279 94.6498 371.296C94.9366 370.318 95.4254 369.376 96.1163 368.469Z" fill="#F0F3F0"/>
<path d="M83.5269 359.405L81.5648 360.687L72.6147 346.988L74.5769 345.706L78.3293 351.45L94.6327 340.798L96.0778 343.01L79.7744 353.661L83.5269 359.405Z" fill="#F0F3F0"/>
<path d="M53.0179 302.93L52.2438 299.873L67.9802 288.239L67.9174 287.991L48.5406 285.249L47.7664 282.192L68.917 276.836L69.5237 279.232L53.4543 283.302L53.5066 283.508L71.2498 286.048L71.8356 288.362L57.4399 299.041L57.4922 299.247L73.5617 295.178L74.1684 297.574L53.0179 302.93Z" fill="#F0F3F0"/>
<path d="M67.4643 265.436L45.7206 267.237L44.6333 254.115L46.969 253.921L47.8382 264.411L55.1852 263.802L54.3723 253.992L56.708 253.798L57.5209 263.609L64.9104 262.996L64.0271 252.337L66.3629 252.143L67.4643 265.436Z" fill="#F0F3F0"/>
<path d="M62.757 193.442L65.029 194.017L62.6857 203.27L60.4137 202.695L62.757 193.442Z" fill="#F0F3F0"/>
<path d="M87.8802 130.942L86.4351 133.153C85.7135 132.869 85.005 132.732 84.3098 132.745C83.6184 132.751 82.9577 132.879 82.3277 133.13C81.6956 133.37 81.1138 133.715 80.5821 134.165C80.0505 134.615 79.5866 135.144 79.1903 135.75C78.4678 136.856 78.0927 138.04 78.065 139.303C78.0413 140.56 78.4005 141.809 79.1429 143.049C79.8891 144.283 81.053 145.417 82.6346 146.45C84.2162 147.483 85.7219 148.094 87.1519 148.282C88.5857 148.463 89.8734 148.291 91.015 147.764C92.1604 147.231 93.0944 146.412 93.817 145.306C94.2132 144.7 94.5106 144.063 94.7093 143.395C94.908 142.727 94.9934 142.058 94.9654 141.386C94.9355 140.705 94.7846 140.046 94.5127 139.411C94.2388 138.765 93.8295 138.171 93.2847 137.629L94.7298 135.417C95.5545 136.193 96.1917 137.042 96.6416 137.964C97.0914 138.885 97.3613 139.842 97.4513 140.834C97.5353 141.822 97.445 142.811 97.1804 143.8C96.9196 144.784 96.4882 145.736 95.8861 146.658C94.8683 148.216 93.5827 149.353 92.0292 150.068C90.4757 150.784 88.7701 151.031 86.9124 150.81C85.0547 150.589 83.1626 149.849 81.2362 148.591C79.3097 147.332 77.8722 145.897 76.9234 144.284C75.9747 142.672 75.5161 141.01 75.5475 139.3C75.5789 137.59 76.1034 135.956 77.1212 134.398C77.7233 133.477 78.4223 132.699 79.2182 132.065C80.0179 131.425 80.8901 130.947 81.8347 130.631C82.7733 130.311 83.755 130.172 84.7797 130.214C85.7985 130.252 86.832 130.494 87.8802 130.942Z" fill="#F0F3F0"/>
<path d="M112.615 108.478C114.308 110.036 115.49 111.689 116.16 113.435C116.831 115.182 117.009 116.896 116.697 118.578C116.385 120.259 115.598 121.785 114.338 123.154C113.078 124.523 111.622 125.432 109.972 125.883C108.322 126.333 106.599 126.296 104.803 125.772C103.007 125.248 101.263 124.207 99.5697 122.649C97.8767 121.09 96.695 119.438 96.0246 117.691C95.3543 115.944 95.1753 114.23 95.4877 112.549C95.8002 110.867 96.5866 109.342 97.8468 107.973C99.1071 106.604 100.562 105.694 102.212 105.244C103.863 104.793 105.586 104.83 107.382 105.354C109.178 105.878 110.922 106.919 112.615 108.478ZM110.883 110.359C109.493 109.079 108.106 108.232 106.722 107.817C105.342 107.396 104.044 107.354 102.826 107.691C101.614 108.023 100.56 108.675 99.6652 109.647C98.7705 110.619 98.2056 111.725 97.9704 112.966C97.7401 114.202 97.889 115.493 98.4171 116.838C98.95 118.178 99.9114 119.488 101.301 120.768C102.691 122.047 104.076 122.897 105.456 123.318C106.84 123.733 108.138 123.775 109.351 123.443C110.569 123.106 111.625 122.452 112.52 121.48C113.414 120.508 113.977 119.404 114.207 118.168C114.442 116.927 114.293 115.636 113.76 114.296C113.232 112.951 112.273 111.638 110.883 110.359Z" fill="#F0F3F0"/>
<path d="M129.319 80.6007L142.72 97.8183L140.702 99.3888L120.798 93.1727L120.63 93.3036L131.152 106.822L129.067 108.445L115.666 91.2273L117.683 89.6569L137.647 95.8803L137.815 95.7495L127.267 82.1973L129.319 80.6007Z" fill="#F0F3F0"/>
<path d="M143.288 74.4097L142.173 72.3485L156.564 64.5602L157.68 66.6215L151.646 69.8869L160.915 87.0141L158.591 88.2716L149.322 71.1444L143.288 74.4097Z" fill="#F0F3F0"/>
<path d="M181.416 77.6367L178.796 78.5361L179.289 55.2988L181.869 54.4132L196.53 72.448L193.91 73.3474L181.78 58.093L181.619 58.1484L181.416 77.6367ZM179.616 69.2437L190.176 65.6185L190.937 67.8352L180.377 71.4604L179.616 69.2437Z" fill="#F0F3F0"/>
<path d="M221.937 52.2692L219.331 52.7041C219.052 51.9803 218.672 51.3667 218.192 50.8636C217.719 50.3593 217.177 49.9601 216.566 49.666C215.962 49.3637 215.314 49.1694 214.622 49.0831C213.931 48.9969 213.228 49.0133 212.514 49.1326C211.211 49.35 210.085 49.8763 209.137 50.7113C208.196 51.5451 207.521 52.6551 207.111 54.0411C206.709 55.426 206.663 57.0501 206.974 58.9136C207.285 60.777 207.856 62.2983 208.686 63.4774C209.524 64.6553 210.523 65.4859 211.683 65.9691C212.851 66.451 214.086 66.5833 215.389 66.3659C216.104 66.2467 216.774 66.034 217.4 65.728C218.026 65.4219 218.576 65.0313 219.051 64.556C219.532 64.0725 219.914 63.5154 220.198 62.8849C220.487 62.2461 220.647 61.5426 220.677 60.7743L223.283 60.3395C223.271 61.4721 223.078 62.5159 222.704 63.4711C222.331 64.4263 221.81 65.2729 221.141 66.011C220.471 66.742 219.682 67.3452 218.775 67.8206C217.875 68.2949 216.882 68.6226 215.796 68.8038C213.961 69.11 212.254 68.9341 210.675 68.2759C209.096 67.6176 207.759 66.5303 206.664 65.0138C205.568 63.4973 204.831 61.6041 204.452 59.3344C204.073 57.0646 204.156 55.0347 204.7 53.2447C205.243 51.4546 206.155 49.992 207.434 48.8569C208.714 47.7217 210.271 47.001 212.107 46.6947C213.193 46.5135 214.238 46.501 215.244 46.6573C216.256 46.8124 217.198 47.1304 218.071 47.6113C218.942 48.0851 219.709 48.7132 220.372 49.4953C221.034 50.2705 221.556 51.1951 221.937 52.2692Z" fill="#F0F3F0"/>
<path d="M236.325 47.5256V45.1818L252.688 45.1818V47.5256H245.828L245.828 67H243.186L243.186 47.5256L236.325 47.5256Z" fill="#F0F3F0"/>
<path d="M300.377 52.0354L303.359 53.0593L304.492 72.5963L304.734 72.6794L317.627 57.9574L320.61 58.9813L313.525 79.6173L311.188 78.8148L316.57 63.1363L316.369 63.0671L304.538 76.5318L302.28 75.7569L301.214 57.8645L301.013 57.7954L295.63 73.4739L293.293 72.6714L300.377 52.0354Z" fill="#F0F3F0"/>
<path d="M323.864 84.6367L334.248 65.4482L345.829 71.7153L344.714 73.7766L335.457 68.767L331.948 75.2506L340.605 79.9357L339.49 81.9969L330.832 77.3118L327.303 83.8329L336.71 88.9237L335.595 90.985L323.864 84.6367Z" fill="#F0F3F0"/>
<path d="M386.71 120.073L384.986 121.66L378.521 114.637L380.245 113.05L386.71 120.073Z" fill="#F0F3F0"/>
<path d="M425.292 175.29L424.23 172.87C424.864 172.422 425.365 171.903 425.735 171.314C426.108 170.732 426.362 170.109 426.497 169.444C426.642 168.784 426.671 168.108 426.585 167.417C426.499 166.725 426.31 166.048 426.019 165.385C425.488 164.175 424.702 163.213 423.66 162.499C422.621 161.792 421.379 161.41 419.935 161.353C418.493 161.303 416.908 161.657 415.178 162.416C413.448 163.175 412.113 164.101 411.174 165.196C410.237 166.297 409.677 167.469 409.494 168.713C409.313 169.963 409.488 171.193 410.019 172.403C410.31 173.066 410.681 173.664 411.131 174.195C411.581 174.727 412.095 175.165 412.673 175.508C413.259 175.856 413.893 176.09 414.574 176.21C415.264 176.334 415.986 176.316 416.738 176.157L417.799 178.576C416.698 178.842 415.639 178.911 414.621 178.784C413.603 178.656 412.655 178.359 411.775 177.891C410.902 177.421 410.124 176.805 409.44 176.042C408.759 175.286 408.198 174.404 407.756 173.396C407.008 171.692 406.76 169.994 407.01 168.302C407.261 166.61 407.987 165.046 409.188 163.612C410.389 162.178 412.043 160.999 414.151 160.074C416.258 159.15 418.246 158.732 420.115 158.819C421.983 158.907 423.625 159.432 425.04 160.393C426.454 161.355 427.535 162.688 428.283 164.392C428.725 165.4 428.994 166.411 429.089 167.423C429.187 168.443 429.11 169.434 428.858 170.398C428.613 171.359 428.192 172.257 427.597 173.092C427.008 173.924 426.239 174.657 425.292 175.29Z" fill="#F0F3F0"/>
<path d="M430.569 208.283C428.338 208.848 426.309 208.934 424.48 208.54C422.651 208.146 421.118 207.358 419.881 206.176C418.644 204.995 417.797 203.502 417.34 201.699C416.884 199.895 416.918 198.179 417.444 196.551C417.969 194.924 418.943 193.501 420.363 192.284C421.784 191.067 423.61 190.176 425.841 189.611C428.071 189.046 430.101 188.961 431.93 189.355C433.759 189.749 435.292 190.537 436.529 191.718C437.766 192.9 438.613 194.392 439.069 196.196C439.526 198 439.492 199.716 438.966 201.343C438.441 202.971 437.467 204.393 436.046 205.611C434.626 206.828 432.8 207.718 430.569 208.283ZM429.941 205.805C431.773 205.341 433.241 204.643 434.346 203.711C435.452 202.786 436.197 201.722 436.581 200.519C436.967 199.322 436.998 198.083 436.673 196.803C436.349 195.522 435.732 194.444 434.821 193.568C433.913 192.7 432.751 192.118 431.336 191.825C429.922 191.538 428.3 191.626 426.468 192.09C424.637 192.554 423.168 193.248 422.062 194.173C420.957 195.105 420.212 196.169 419.826 197.366C419.442 198.569 419.412 199.811 419.736 201.092C420.061 202.372 420.677 203.447 421.586 204.316C422.496 205.192 423.658 205.773 425.072 206.06C426.487 206.354 428.11 206.269 429.941 205.805Z" fill="#F0F3F0"/>
<path d="M444.771 237.514L423.027 239.316L422.816 236.768L438.906 223.505L438.889 223.292L421.817 224.707L421.598 222.074L443.342 220.272L443.553 222.82L427.424 236.13L427.441 236.342L444.556 234.924L444.771 237.514Z" fill="#F0F3F0"/>
<path d="M442.313 252.596L444.649 252.789L443.297 269.097L440.962 268.903L441.528 262.066L422.12 260.458L422.338 257.825L441.746 259.433L442.313 252.596Z" fill="#F0F3F0"/>
<path d="M418.758 282.75L419.438 280.064L438.621 293.187L437.952 295.831L414.835 298.241L415.515 295.556L434.92 293.744L434.962 293.579L418.758 282.75ZM426.768 285.833L424.028 296.656L421.756 296.081L424.496 285.258L426.768 285.833Z" fill="#F0F3F0"/>
<path d="M417.832 330.547L418.893 328.127C419.652 328.29 420.373 328.307 421.057 328.181C421.737 328.061 422.368 327.825 422.948 327.475C423.532 327.134 424.049 326.698 424.5 326.166C424.95 325.635 425.321 325.037 425.612 324.374C426.142 323.164 426.317 321.934 426.137 320.684C425.953 319.44 425.393 318.268 424.457 317.167C423.518 316.072 422.183 315.145 420.453 314.387C418.723 313.628 417.137 313.273 415.696 313.324C414.252 313.38 413.01 313.763 411.971 314.47C410.929 315.184 410.142 316.146 409.611 317.356C409.32 318.019 409.132 318.696 409.046 319.388C408.96 320.079 408.986 320.753 409.124 321.411C409.266 322.078 409.523 322.703 409.896 323.285C410.272 323.877 410.774 324.395 411.4 324.841L410.339 327.26C409.398 326.63 408.629 325.898 408.034 325.063C407.439 324.228 407.015 323.328 406.763 322.365C406.517 321.404 406.444 320.414 406.542 319.394C406.637 318.381 406.906 317.371 407.348 316.363C408.096 314.659 409.177 313.326 410.591 312.364C412.006 311.402 413.647 310.878 415.516 310.79C417.385 310.702 419.373 311.121 421.48 312.045C423.587 312.969 425.242 314.149 426.443 315.583C427.644 317.017 428.37 318.58 428.62 320.272C428.871 321.964 428.622 323.663 427.875 325.367C427.433 326.375 426.871 327.257 426.191 328.013C425.507 328.776 424.725 329.391 423.846 329.858C422.973 330.328 422.027 330.627 421.01 330.754C419.998 330.885 418.939 330.816 417.832 330.547Z" fill="#F0F3F0"/>
<path d="M414.588 345.717L416.55 346.999L407.6 360.698L405.638 359.416L409.39 353.673L393.087 343.021L394.532 340.809L410.835 351.461L414.588 345.717Z" fill="#F0F3F0"/>
<path d="M375.125 396.342L372.636 398.279L355.661 388.541L355.459 388.698L360.732 407.545L358.243 409.482L344.842 392.264L346.793 390.746L356.974 403.827L357.143 403.696L352.342 386.427L354.225 384.961L369.787 393.855L369.955 393.724L359.773 380.643L361.724 379.125L375.125 396.342Z" fill="#F0F3F0"/>
<path d="M334.986 398.174L345.37 417.362L333.789 423.629L332.674 421.568L341.931 416.559L338.422 410.075L329.765 414.76L328.649 412.699L337.307 408.014L333.778 401.493L324.371 406.583L323.255 404.522L334.986 398.174Z" fill="#F0F3F0"/>
<path d="M270.946 431.404L270.561 429.093L279.976 427.521L280.362 429.833L270.946 431.404Z" fill="#F0F3F0"/>
</svg>
